<svg xmlns="http://www.w3.org/2000/svg" viewBox="0 0 278.85 119.36" id="icon-ABTA-with-number"><path d="M37.97 0c-1.2 0-2.38.06-3.55.17v75.59a34.72 34.72 0 0 0 3.55.18 38 38 0 0 0 0-75.94m13.88 41.43a51.2 51.2 0 0 1-.94 7.09h-8.9v-7.09zm-9.84-7.1v-7.08h8.85a50.78 50.78 0 0 1 1 7.08zm17.3 7.1h8.91a30.44 30.44 0 0 1-1.67 7.09h-8.19a51.67 51.67 0 0 0 1-7.09m0-7.1a51.69 51.69 0 0 0-1-7.08h8.13a30.12 30.12 0 0 1 1.71 7.08zm3.33-14.17h-6.43a46.32 46.32 0 0 0-4.83-9.5 30.51 30.51 0 0 1 11.26 9.5m-13.85 0h-6.83V7.79a46.16 46.16 0 0 1 6.81 12.37m-6.81 48V55.6h6.88a46.1 46.1 0 0 1-6.87 12.55zm9.48-2.9a46.44 46.44 0 0 0 4.85-9.6h6.45a30.6 30.6 0 0 1-11.29 9.6m108.79 6.1h-19.94V8.53h19.64c12.69 0 18.5 8.68 18.5 16.31 0 6-2.48 10-7.53 13.06v.19c7.25 1.61 11.62 6.68 11.62 14.31 0 9-6.48 19-22.29 19m-1.91-53.09h-6.49v16.35h6.09c5.16 0 9-3.33 9-8.58 0-4.47-3.06-7.81-8.58-7.81m2.18 26h-8.69v17.39h7.34c7.73 0 11.53-3.45 11.53-9.15 0-4.87-3.72-8.2-10.2-8.2m68.29-26.14h-16.72v53.19h-11.64V18.17h-18.2V8.53h50.32l-3.76 9.64zM122.8 71.36l-6.21-15.7H94.17l-5.82 15.7H76.8l24.31-62.84h8.64l25.18 62.84zm-14.88-39.61a63.43 63.43 0 0 1-2.38-7.81h-.1a49.3 49.3 0 0 1-2.28 7.63L97.69 46.2h15.3zm158.77 39.61l-6.17-15.7h-22.43l-5.81 15.7h-11.59l24.3-62.84h8.7l25.16 62.84zm-14.85-39.61a62.43 62.43 0 0 1-2.38-7.81h-.1a49.73 49.73 0 0 1-2.28 7.63l-5.45 14.63h15.29z" fill="#007bbc" /><path d="M30.82 30.8v-2.88L12.69 9.74a38.11 38.11 0 0 0-2.92 2.92L27.96 30.8zm0 14.12v2.88L12.69 65.98a37 37 0 0 1-2.88-2.88l18.15-18.18zm0-10.49H.17C.06 35.59 0 36.77 0 37.97s.06 2.37.17 3.53h30.65z" fill="#ed1b2f" /><path d="M7.77 15.02a37.54 37.54 0 0 0-7 15.78h22.78zm23.05 8.49V.73a37.61 37.61 0 0 0-15.77 7zM15.05 67.97a37.68 37.68 0 0 0 15.77 7V52.21zm8.5-23.05H.75a37.54 37.54 0 0 0 7 15.78z" fill="#007bbc" /><path d="M28.83 118.85l-3.14-7.94h-10l-3.08 7.95H9.69l9.88-25.09h2.44l9.83 25.09zm-4-10.56l-2.91-7.74q-.56-1.47-1.16-3.61a32.51 32.51 0 0 1-1.07 3.61l-3 7.74zm10.44-14.42h7.06q5 0 7.19 1.49a5.25 5.25 0 0 1 2.22 4.7 5.43 5.43 0 0 1-1.24 3.67 6 6 0 0 1-3.61 1.87v.17q5.69 1 5.69 6a6.42 6.42 0 0 1-2.26 5.23 9.64 9.64 0 0 1-6.33 1.88h-8.72zm2.91 10.7h4.79a7.79 7.79 0 0 0 4.43-1 3.73 3.73 0 0 0 1.35-3.26 3.3 3.3 0 0 0-1.5-3 9.4 9.4 0 0 0-4.79-.93h-4.28zm0 2.46v9.35h5.21a7.43 7.43 0 0 0 4.55-1.17 4.32 4.32 0 0 0 1.53-3.67 3.88 3.88 0 0 0-1.56-3.42 8.36 8.36 0 0 0-4.76-1.09zm27.51 11.82h-3v-22.4h-7.87v-2.58h18.74v2.58h-7.87zm27.33 0l-3.11-7.95h-10l-3.08 7.95h-2.95l9.88-25.09h2.44l9.83 25.09zm-4-10.56l-2.91-7.74q-.56-1.47-1.16-3.61a32.29 32.29 0 0 1-1.08 3.61l-2.94 7.74zm39.05 10.56h-3.31l-13.66-21h-.14q.27 3.69.27 6.77v14.2h-2.68v-25h3.28l13.62 20.84h.14q0-.46-.15-3a35.61 35.61 0 0 1-.09-3.58V93.87h2.72zm22.62-9.38a10.33 10.33 0 0 1-2.31 7.15 8.12 8.12 0 0 1-6.37 2.57 8.44 8.44 0 0 1-4.46-1.18 7.78 7.78 0 0 1-3-3.38 11.78 11.78 0 0 1-1.06-5.16 10.32 10.32 0 0 1 2.29-7.14 8.1 8.1 0 0 1 6.36-2.55 7.92 7.92 0 0 1 6.25 2.61 10.29 10.29 0 0 1 2.3 7.08zm-14.27 0a8.89 8.89 0 0 0 1.44 5.47 5.7 5.7 0 0 0 8.05.4q.21-.19.4-.4a8.84 8.84 0 0 0 1.44-5.48 8.7 8.7 0 0 0-1.44-5.43 5.07 5.07 0 0 0-4.26-1.85 5 5 0 0 0-4.2 1.83 8.8 8.8 0 0 0-1.44 5.46zm18.82 7.57a2.54 2.54 0 0 1 .52-1.73 1.89 1.89 0 0 1 1.5-.59 2 2 0 0 1 1.55.59 2.44 2.44 0 0 1 .56 1.73 2.4 2.4 0 0 1-.56 1.71 2.24 2.24 0 0 1-3 .06 2.34 2.34 0 0 1-.57-1.77zm25.61-10.68l6.66-12.49h3.18l-8.34 15.3v9.69h-2.94v-9.55l-8.32-15.43h3.18zm22.02 12.49h-2.77v-17.8q0-2.22.14-4.2-.36.36-.8.75t-4.07 3.33l-1.5-1.95 6.61-5.11h2.39zm25.93 0h-16.42v-2.44l6.58-6.61a48.54 48.54 0 0 0 4-4.34 11.1 11.1 0 0 0 1.44-2.53 7.26 7.26 0 0 0 .48-2.65 4.2 4.2 0 0 0-1.21-3.17 4.65 4.65 0 0 0-3.37-1.17 8.46 8.46 0 0 0-2.95.51 11.76 11.76 0 0 0-3.1 1.86l-1.56-1.93a11.52 11.52 0 0 1 7.52-2.87 7.94 7.94 0 0 1 5.52 1.8 6.2 6.2 0 0 1 2 4.84 9.35 9.35 0 0 1-1.33 4.7 29.85 29.85 0 0 1-5 5.88l-5.47 5.35v.14h12.85zm11.4-15.26a9.19 9.19 0 0 1 6.21 2 6.72 6.72 0 0 1 2.26 5.36 7.74 7.74 0 0 1-2.47 6.08 9.86 9.86 0 0 1-6.81 2.2 12.53 12.53 0 0 1-6.44-1.35v-2.73a9.77 9.77 0 0 0 3 1.2 14.65 14.65 0 0 0 3.5.44 7 7 0 0 0 4.67-1.42 5.09 5.09 0 0 0 1.67-4.1q0-5.23-6.41-5.23a25.54 25.54 0 0 0-4.34.5l-1.47-.94.94-11.69h12.42v2.61h-10l-.63 7.5a19.94 19.94 0 0 1 3.9-.43zm12.49 4.58q0-7.37 2.86-11t8.47-3.65a11.29 11.29 0 0 1 3 .32v2.44a9.74 9.74 0 0 0-3-.43 7.59 7.59 0 0 0-6.14 2.5q-2.12 2.5-2.32 7.87h.21a6.54 6.54 0 0 1 6-2.94 7 7 0 0 1 5.31 2 7.67 7.67 0 0 1 1.94 5.52 8.51 8.51 0 0 1-2.13 6.13 7.57 7.57 0 0 1-5.75 2.23 7.39 7.39 0 0 1-6.15-2.91q-2.3-2.88-2.3-8.08zm8.39 8.61a4.75 4.75 0 0 0 3.77-1.53 6.5 6.5 0 0 0 1.34-4.42 5.7 5.7 0 0 0-1.25-3.9 4.7 4.7 0 0 0-3.73-1.42 6.29 6.29 0 0 0-2.82.63 5.23 5.23 0 0 0-2 1.74 4 4 0 0 0-.76 2.31 7.92 7.92 0 0 0 .68 3.28 5.78 5.78 0 0 0 1.94 2.41 4.83 4.83 0 0 0 2.83.91z" fill="#231f20" /></svg>