<svg xmlns="http://www.w3.org/2000/svg" viewBox="0 0 135 40" id="icon-app-store-2019"><style>#icon-app-store-2019 .st0{fill:#fff}</style><path d="M130 39.9H5c-2.8 0-5-2.2-5-5v-30c0-2.7 2.2-5 5-5h125c2.8 0 5 2.2 5 5v30c0 2.7-2.2 5-5 5z" /><g id="icon-app-store-2019_XMLID_22_"><g id="icon-app-store-2019_XMLID_23_"><path id="icon-app-store-2019_XMLID_25_" class="st0" d="M32.5 19.2c0-2.8 2.3-4.1 2.4-4.2-1.3-1.9-3.3-2.1-4-2.2-1.7-.2-3.3 1-4.2 1-.9 0-2.2-1-3.6-1-1.8 0-3.5 1.1-4.5 2.7-1.9 3.3-.5 8.3 1.4 11 .9 1.3 2 2.8 3.4 2.8 1.4-.1 1.9-.9 3.6-.9 1.7 0 2.1.9 3.6.9s2.4-1.3 3.3-2.7c1.1-1.5 1.5-3 1.5-3.1 0 .1-2.8-1-2.9-4.3z" /><path id="icon-app-store-2019_XMLID_24_" class="st0" d="M29.8 11.1c.7-.9 1.3-2.2 1.1-3.5-1.1 0-2.4.7-3.2 1.7-.7.8-1.3 2.1-1.1 3.4 1.2.1 2.4-.7 3.2-1.6z" /></g></g><g id="icon-app-store-2019_XMLID_1_"><path class="st0" d="M45.6 7.7c1.8 0 2.8 1.1 2.8 3s-1 3-2.8 3h-2.2v-6h2.2zm-1.2 5.1h1.1c1.2 0 2-.8 2-2.1s-.7-2.1-2-2.1h-1.1v4.2zM49.5 11.4c0-1.5.8-2.3 2.1-2.3s2.1.9 2.1 2.3c0 1.5-.8 2.3-2.1 2.3s-2.1-.9-2.1-2.3zm3.3 0c0-1-.4-1.5-1.2-1.5-.8 0-1.2.6-1.2 1.5 0 1 .4 1.6 1.2 1.6.7-.1 1.2-.7 1.2-1.6zM59.3 13.6h-.9l-.9-3.3h-.1l-.9 3.3h-.9l-1.2-4.5h.9l.8 3.4h.1l.8-3.4h.9l.9 3.4h.1l.8-3.4h.9l-1.3 4.5zM61.6 9.1h.9v.7h.1c.2-.5.6-.8 1.3-.8 1 0 1.6.6 1.6 1.7v2.9h-.9v-2.7c0-.7-.3-1.1-1-1.1s-1.1.4-1.1 1.1v2.6h-.9V9.1zM66.9 7.4h.9v6.3h-.9V7.4zM69 11.4c0-1.5.8-2.4 2.1-2.4s2.1.9 2.1 2.3c0 1.5-.8 2.3-2.1 2.3-1.3.1-2.1-.8-2.1-2.2zm3.3 0c0-1-.4-1.5-1.2-1.5-.8 0-1.2.6-1.2 1.5 0 1 .4 1.6 1.2 1.6.8-.1 1.2-.7 1.2-1.6zM74.2 12.3c0-.8.6-1.3 1.7-1.3l1.2-.1v-.4c0-.5-.3-.7-.9-.7-.5 0-.8.2-.9.5h-.9c0-.8.8-1.3 1.8-1.3 1.1 0 1.8.6 1.8 1.5v3.1h-.9V13H77c-.3.5-.8.7-1.4.7-.8 0-1.4-.5-1.4-1.4zm2.9-.3v-.4l-1.1.1c-.6 0-.9.3-.9.6 0 .4.4.6.8.6.7 0 1.2-.4 1.2-.9zM79.1 11.4c0-1.5.7-2.4 1.9-2.4.6 0 1.1.3 1.4.8h.1V7.4h.9v6.3h-.9V13h-.1c-.3.5-.8.8-1.4.8-1.2-.1-1.9-1-1.9-2.4zm.9 0c0 1 .5 1.5 1.2 1.5s1.2-.6 1.2-1.5-.5-1.5-1.2-1.5c-.7-.1-1.2.5-1.2 1.5zM87 11.4c0-1.5.8-2.4 2.1-2.4s2.1.9 2.1 2.3c0 1.5-.8 2.3-2.1 2.3-1.3.1-2.1-.8-2.1-2.2zm3.3 0c0-1-.4-1.5-1.2-1.5-.8 0-1.2.6-1.2 1.5 0 1 .4 1.6 1.2 1.6.8-.1 1.2-.7 1.2-1.6zM92.4 9.1h.9v.7h.1c.2-.5.6-.8 1.3-.8 1 0 1.6.6 1.6 1.7v2.9h-.9v-2.7c0-.7-.3-1.1-1-1.1s-1.1.4-1.1 1.1v2.6h-.9V9.1zM101.3 8v1.1h1v.7h-1v2.3c0 .5.2.7.6.7h.3v.7h-.5c-1 0-1.4-.3-1.4-1.2V9.9h-.7v-.8h.7V8h1zM103.5 7.4h.9v2.5h.1c.2-.5.7-.8 1.4-.8 1 0 1.6.6 1.6 1.7v2.9h-.9V11c0-.7-.3-1.1-1-1.1s-1.1.5-1.1 1.1v2.6h-.9V7.4zM112.5 12.4c-.2.8-.9 1.3-2 1.3-1.3 0-2.1-.9-2.1-2.3s.8-2.4 2.1-2.4 2 .9 2 2.3v.3h-3.2c0 .8.5 1.3 1.2 1.3.5 0 .9-.2 1.1-.5h.9zm-3.1-1.4h2.3c0-.7-.5-1.2-1.1-1.2-.7 0-1.1.4-1.2 1.2z" /></g><g id="icon-app-store-2019_XMLID_20_"><path class="st0" d="M50.1 26.1h-4.7l-1.1 3.4h-2L46.7 17h2.1l4.5 12.4h-2l-1.2-3.3zm-4.3-1.6h3.8l-1.8-5.4h-.1l-1.9 5.4zM62.9 24.9c0 2.8-1.5 4.6-3.8 4.6-1.3 0-2.3-.6-2.8-1.6v4.5h-1.9v-12h1.8v1.5c.5-1 1.6-1.6 2.9-1.6 2.3 0 3.8 1.8 3.8 4.6zm-1.9 0c0-1.8-.9-3-2.4-3-1.4 0-2.4 1.2-2.4 3s1 3 2.4 3c1.5 0 2.4-1.2 2.4-3zM72.9 24.9c0 2.8-1.5 4.6-3.8 4.6-1.3 0-2.3-.6-2.8-1.6v4.5h-1.9v-12h1.8v1.5c.5-1 1.6-1.6 2.9-1.6 2.3 0 3.8 1.8 3.8 4.6zm-1.9 0c0-1.8-.9-3-2.4-3-1.4 0-2.4 1.2-2.4 3s1 3 2.4 3 2.4-1.2 2.4-3zM79.5 26c.1 1.2 1.3 2 3 2 1.6 0 2.7-.8 2.7-1.9 0-1-.7-1.5-2.3-1.9l-1.6-.4c-2.3-.6-3.3-1.6-3.3-3.3 0-2.1 1.9-3.6 4.5-3.6s4.4 1.5 4.5 3.6h-2c-.1-1.2-1.1-2-2.6-2s-2.5.8-2.5 1.9c0 .9.7 1.4 2.3 1.8l1.4.3c2.5.6 3.6 1.6 3.6 3.4 0 2.3-1.9 3.8-4.8 3.8-2.8 0-4.6-1.4-4.7-3.7h1.8zM91.1 18.2v2.1h1.7v1.5h-1.7v5c0 .8.3 1.1 1.1 1.1h.6v1.5c-.2.1-.6.1-1 .1-1.8 0-2.5-.7-2.5-2.4v-5.2H88v-1.5h1.3v-2.1h1.8zM93.8 24.9c0-2.8 1.7-4.6 4.3-4.6 2.6 0 4.3 1.8 4.3 4.6 0 2.9-1.7 4.6-4.3 4.6-2.6 0-4.3-1.8-4.3-4.6zm6.7 0c0-2-.9-3.1-2.4-3.1s-2.4 1.2-2.4 3.1c0 2 .9 3.1 2.4 3.1s2.4-1.1 2.4-3.1zM104 20.4h1.8v1.5c.3-1 1.1-1.6 2.2-1.6.3 0 .5 0 .6.1v1.7c-.1-.1-.5-.1-.8-.1-1.2 0-1.9.8-1.9 2.1v5.4H104v-9.1zM117.2 26.8c-.2 1.6-1.9 2.8-3.9 2.8-2.6 0-4.3-1.8-4.3-4.6s1.6-4.7 4.2-4.7c2.5 0 4.1 1.7 4.1 4.5v.6h-6.4v.1c0 1.5 1 2.6 2.4 2.6 1 0 1.8-.5 2.1-1.3h1.8zm-6.3-2.7h4.5c0-1.4-.9-2.3-2.2-2.3-1.3 0-2.2.9-2.3 2.3z" /></g></svg>