<svg viewBox="0 0 100 100" xmlns="http://www.w3.org/2000/svg" id="icon-atol-logo-mono"><g fill="none" fill-rule="nonzero"><path fill="transparent" d="M74.98 23.701l-14.428-2.567-18.064-3.144-7.946-1.408-8.87 50.343L66.03 74.03l8.95-50.33" /><path d="M42.488 17.99c-5.986 10.83-5.91 22.677 3.631 32.637 9.543 9.96 22.587 8.363 22.587 8.363l-2.671 15.04-40.363-7.105 8.855-50.348 7.96 1.413zm-6.11 39.811l-2.269-.403-4.293 4.244 2.1.373.83-.88 3.572.636.443 1.105 2.18.388-2.563-5.463zm-2.935 2.592l1.582-1.687.86 2.125-2.442-.438zm6.756-1.91l-.154.86 2.89.513-.706 3.995 2.02.358.711-3.995 2.876.512.154-.86-7.791-1.383zm16.299 3.328a7.11 7.11 0 0 0-3.05-1.124 7.055 7.055 0 0 0-3.254 0c-1.055.272-1.662.852-1.82 1.74-.16.89.21 1.64 1.109 2.25.915.607 1.96.993 3.05 1.129a7.09 7.09 0 0 0 3.253 0c1.055-.292 1.658-.874 1.811-1.746.153-.873-.214-1.627-1.1-2.264v.015zm-5.637 2.368a1.493 1.493 0 0 1 .452-2.527 3.602 3.602 0 0 1 1.99-.105 3.552 3.552 0 0 1 1.816.781 1.493 1.493 0 0 1-.447 2.533c-1.303.38-2.71.13-3.801-.677l-.01-.005zm7.84 2.597l6.777 1.21.149-.877-4.761-.845.706-3.985-2.01-.359-.86 4.856z" fill="#fff" /><path d="M69.154 56.597a20.607 20.607 0 0 1-17.11-11.443c-7.845-15.622 8.458-24.02 8.458-24.02l14.483 2.577-5.83 32.886" fill="#fff" /><path d="M41.672 95.582a46.537 46.537 0 1 1 53.91-37.746c-4.492 25.292-28.607 42.177-53.91 37.746zM.762 41.114A49.751 49.751 0 1 0 58.387.761C31.34-3.974 5.562 14.077.761 41.114z" fill="#fff" /><path d="M12.328 59.045c.094.326.217.642.369.945.527.886 1.462.995 2.358.766 1.179-.323 1.796-1.14 1.587-1.905l-.249-.916-4.065 1.11zm-5.243 1.433c-.07-.378-.125-.757-.23-1.125-.104-.368-.243-.726-.377-1.084l10.104-2.757.995 3.622c.557 2.045.035 3.378-1.627 3.831-2.622.717-3.706-1.045-4.428-3.696l-4.437 1.209zm8.9 7.646c.682 1.458 1.741 1.757 3.095.96.222-.129.43-.28.621-.452.97-.85.284-1.776-.189-2.582l-3.527 2.074zm3.08-4.477l1.646 2.806c.364.617.956 1.562.995 2.288a2.279 2.279 0 0 1-1.208 2.249c-1.289.756-2.593.408-3.578-.662-.835 1.468-1.567 2.985-2.333 4.503l-.497.995c-.204-.408-.398-.826-.637-1.239-.24-.413-.498-.766-.761-1.144l1.845-3.19c.24-.407.632-1.129.96-1.716l-.054-.09-4.23 2.488c-.163-.343-.317-.696-.497-1.025-.179-.328-.427-.636-.646-.95l8.995-5.313zm2.437 13.438c-1.303 1.492-2.014 3.671-.293 5.184 1.721 1.512 4.11.497 5.781-1.433 1.299-1.493 2.095-3.786.373-5.294-1.597-1.398-3.607-1.025-5.86 1.548v-.005zm-.955 5.825c-2.537-2.223-2.94-5.213-.661-7.82 1.99-2.284 5.288-2.677 8.149-.17 3.273 2.866 2.219 6.02.671 7.811-1.95 2.24-5.323 2.637-8.159.17v.01zm12.786 7.672c-.338-.179-.671-.373-.995-.522-.323-.15-.721-.264-1.08-.388l3.727-8.617a20.87 20.87 0 0 0-2.701-.955 2.83 2.83 0 0 0 .497-1.19L40 82.03a4.61 4.61 0 0 0-.323.557 4.522 4.522 0 0 0-.19.632c-.781-.474-1.59-.9-2.422-1.279l-3.732 8.642m13.966-7.269a2.94 2.94 0 0 0-.22 1.294 21.393 21.393 0 0 0-3.442-.801l-.547 3.259 1.567.263c.62.103 1.247.162 1.875.18a2.88 2.88 0 0 0-.224 1.293 13.93 13.93 0 0 0-1.825-.448l-1.563-.293-.631 3.83c1.161.2 2.334.326 3.512.379a2.91 2.91 0 0 0-.219 1.293l-5.736-.995 1.741-10.249 5.731.995m10.891 8.03L58 92.682a6.647 6.647 0 0 1-2.945.945c-3.254.313-5.906-1.453-6.21-4.567-.382-3.98 2.18-6.04 5.473-6.363a6.93 6.93 0 0 1 3.175.442c-.085.528-.13 1.055-.2 1.602h-.213a3.19 3.19 0 0 0-2.657-1.154c-2.523.244-3.309 2.756-3.09 4.975.254 2.597 1.707 4.299 4.045 4.07a4.289 4.289 0 0 0 2.612-1.403l.204.074m8.692-1.029c-.369.114-.742.209-1.095.348-.353.14-.691.323-1.04.497l-3.428-8.74c-.883.353-1.74.767-2.567 1.238a4.587 4.587 0 0 0-.169-.642 4.323 4.323 0 0 0-.303-.567l7.323-2.87c.04.212.094.421.164.626.09.202.194.397.314.582-.89.216-1.765.483-2.622.801l3.428 8.742m4.781-15c.166.411.425.779.756 1.074a21.512 21.512 0 0 0-2.985 1.86l1.89 2.682 1.299-.915c.512-.364 1-.763 1.458-1.194.165.412.424.78.756 1.075a13.72 13.72 0 0 0-1.612.97l-1.299.915 2.234 3.17a28.279 28.279 0 0 0 2.761-2.205c.091.201.196.396.314.582.136.176.284.342.443.498l-4.757 3.353-5.97-8.497 4.756-3.354m10.374 2.946l.806-.995c1.303-1.652 1.492-3.562-1.329-5.781-2.254-1.781-3.98-1.418-5.313.273l-.926 1.174 6.762 5.329zm-5.667-8.2c2.124-2.487 4.741-2.129 6.706-.576 2.707 2.139 2.806 5.313.866 7.766l-2.657 3.358-8.154-6.468 3.239-4.08zM45.582 7.83a2.637 2.637 0 0 1 4.06 1.528 6.05 6.05 0 0 1-.045 2.348 6.597 6.597 0 0 1-.761 2.224 2.488 2.488 0 0 1-2.766 1.309 2.542 2.542 0 0 1-1.443-.776 2.015 2.015 0 0 1-.498-1.612l1.493.263a.91.91 0 0 0 .15.602c.142.176.347.29.571.319a1.08 1.08 0 0 0 1.18-.632c.204-.402.352-.83.437-1.274-.145.134-.314.24-.497.314a1.99 1.99 0 0 1-1.075.064 2.378 2.378 0 0 1-1.492-.91 2.323 2.323 0 0 1-.379-1.925 2.82 2.82 0 0 1 1.065-1.841zm1.99 3.454c.396-.199.658-.593.687-1.035a1.622 1.622 0 0 0-.12-1.075.995.995 0 0 0-.756-.522 1.04 1.04 0 0 0-.691.1c-.366.233-.6.626-.632 1.059-.09.354-.057.727.094 1.06.17.28.46.464.786.497.207.033.418.003.607-.084h.025zm6.657-.657a.776.776 0 0 0-.07-.428.83.83 0 0 0-.661-.498 1.09 1.09 0 0 0-1.18.632c-.212.405-.37.837-.467 1.284.208-.18.458-.306.726-.368a2.388 2.388 0 0 1 2.393.995c.353.553.473 1.224.333 1.865-.11.68-.45 1.3-.965 1.757a2.378 2.378 0 0 1-2.11.457 2.294 2.294 0 0 1-1.895-1.572 4.975 4.975 0 0 1-.094-2.487c.08-.473.189-.94.328-1.398a4.378 4.378 0 0 1 .796-1.518c.27-.319.61-.57.995-.731.418-.162.874-.2 1.314-.11a2.527 2.527 0 0 1 1.587.841c.355.44.517 1.006.447 1.567l-1.477-.288zm-2.528 3.95c.16.288.442.486.767.537a.94.94 0 0 0 .845-.233c.252-.247.413-.571.458-.92a1.49 1.49 0 0 0-.14-1.075 1.055 1.055 0 0 0-.73-.498 1.08 1.08 0 0 0-.717.11 1.323 1.323 0 0 0-.637.995c-.093.367-.044.757.14 1.09l.014-.006zm5.204-3.01l.18-.995c.329.053.661.081.995.085.288-.006.567-.1.8-.269a1.33 1.33 0 0 0 .389-.497c.048-.093.085-.192.11-.294l1.243.224-1.358 7.577-1.528-.274.97-5.238-1.8-.319zm5.428 3.005a1.86 1.86 0 0 1 .995-.627c-.28-.24-.48-.562-.572-.92a2.244 2.244 0 0 1 0-.826c.09-.54.41-1.013.876-1.299a2.985 2.985 0 0 1 3.517.632c.338.429.474.982.373 1.518a2.24 2.24 0 0 1-.308.766 1.542 1.542 0 0 1-.846.612c.324.257.566.603.697.995a2.4 2.4 0 0 1 .074 1.204 2.194 2.194 0 0 1-.995 1.492 2.806 2.806 0 0 1-2.1.319 2.607 2.607 0 0 1-1.855-1.025 2.284 2.284 0 0 1-.363-1.746c.072-.403.247-.78.507-1.095zm1.204 2.2a1.215 1.215 0 0 0 1.602.288c.25-.203.411-.496.448-.816.08-.318.03-.655-.14-.936a1.229 1.229 0 0 0-1.591-.283 1.229 1.229 0 0 0-.453.826c-.076.312-.028.642.134.92zm.712-3.434a.95.95 0 0 0 .656.388.94.94 0 0 0 .752-.134.95.95 0 0 0 .368-.627.995.995 0 0 0-.125-.746.955.955 0 0 0-.656-.378.896.896 0 0 0-1.13.786.94.94 0 0 0 .135.711z" fill="#fff" /></g></svg>