<svg viewBox="0 0 97 44" xmlns="http://www.w3.org/2000/svg" xmlns:xlink="http://www.w3.org/1999/xlink" id="icon-atol-logo"><defs><circle id="icon-atol-logo_a" cx="20" cy="20" r="19.091" /><path id="icon-atol-logo_b" d="M0 40h90.263V0H0z" /></defs><g fill="none" fill-rule="evenodd"><path d="M33.793 7.455h58.752c2.21 0 4 1.79 4 4v21.09c0 2.21-1.79 4-4 4H33.82a18.7 18.7 0 0 1-15.054 3.915C8.582 38.663 1.783 28.95 3.58 18.765 5.376 8.58 15.088 1.78 25.272 3.577a18.62 18.62 0 0 1 8.52 3.878z" fill="#203240" /><g transform="translate(2 2)"><use fill="#FFF" xlink:href="#icon-atol-logo_a" /><circle stroke="#203240" stroke-width="2" cx="20" cy="20" r="20.091" /></g><path d="M47.107 27.424h.62c.46.034.92-.075 1.316-.313.294-.236.452-.603.422-.978.027-.35-.113-.69-.377-.92a1.86 1.86 0 0 0-1.176-.304H47.1l.007 2.516zm3.57-1.332a2.09 2.09 0 0 1-.734 1.72c-.49.397-1.186.596-2.092.596h-.743v2.68h-1.17v-7.162H48c.894 0 1.564.183 2.01.548.463.405.71 1.004.668 1.618zm4.056-.518a2.7 2.7 0 0 1 .574.05l-.113 1.07a2.15 2.15 0 0 0-.51-.057 1.477 1.477 0 0 0-1.12.45c-.292.318-.446.74-.428 1.17v2.833h-1.15v-5.42h.902l.153.956h.06c.166-.31.407-.574.7-.768.277-.186.6-.285.933-.284m2.244 2.796c0 1.252.462 1.877 1.387 1.877.924 0 1.38-.625 1.37-1.876 0-1.238-.46-1.857-1.38-1.857a1.18 1.18 0 0 0-1.054.48 2.43 2.43 0 0 0-.317 1.378h-.005zm3.947 0c0 .878-.227 1.57-.68 2.072a2.445 2.445 0 0 1-1.896.745c-.47.01-.935-.11-1.344-.342a2.27 2.27 0 0 1-.897-.984 3.341 3.341 0 0 1-.314-1.49c0-.876.225-1.562.677-2.057a2.453 2.453 0 0 1 1.905-.74c.7-.033 1.382.245 1.86.76.48.566.726 1.296.687 2.038zm3.342 1.885c.286 0 .57-.044.842-.13v.867a2.43 2.43 0 0 1-.493.14c-.208.04-.42.063-.63.065-1.093 0-1.638-.574-1.638-1.723v-2.932h-.733v-.508l.79-.42.392-1.148h.71v1.205h1.54v.872h-1.538v2.895a.808.808 0 0 0 .208.615c.148.14.345.212.547.203m4.082-3.796a1.16 1.16 0 0 0-.88.348c-.24.283-.38.64-.394 1.013h2.458a1.503 1.503 0 0 0-.323-1.015 1.11 1.11 0 0 0-.86-.36v.016zm.21 4.737a2.637 2.637 0 0 1-1.976-.736 2.803 2.803 0 0 1-.713-2.03c0-.878.22-1.574.66-2.088a2.284 2.284 0 0 1 1.82-.76c.63-.035 1.243.2 1.69.642.437.493.66 1.138.622 1.794v.62h-3.606c-.014.445.138.877.426 1.215.3.295.712.45 1.132.423.3.002.6-.03.895-.092.305-.07.603-.17.89-.3v.937a3.495 3.495 0 0 1-.853.285 5.195 5.195 0 0 1-.987.092zm5.601 0c-.82 0-1.442-.24-1.87-.718-.425-.48-.638-1.166-.638-2.06 0-.91.222-1.613.667-2.104.446-.49 1.09-.74 1.932-.742.53-.008 1.056.1 1.54.318l-.346.926a3.505 3.505 0 0 0-1.195-.284c-.938 0-1.406.622-1.406 1.866a2.23 2.23 0 0 0 .35 1.37c.246.313.63.483 1.026.46.51 0 1.01-.132 1.455-.383v1.003c-.204.122-.426.21-.658.263-.283.06-.57.088-.86.084m4.803-.941c.285 0 .57-.044.842-.13v.867a2.43 2.43 0 0 1-.493.14 3.439 3.439 0 0 1-.624.055c-1.09 0-1.637-.575-1.637-1.724v-2.92h-.74v-.51l.79-.42.392-1.147h.708v1.205h1.542v.872h-1.542v2.895a.808.808 0 0 0 .208.615c.15.14.35.213.553.203m4.082-3.796a1.16 1.16 0 0 0-.88.348c-.24.283-.38.64-.394 1.013h2.46a1.5 1.5 0 0 0-.325-1.015 1.112 1.112 0 0 0-.862-.36v.016zm.21 4.737a2.637 2.637 0 0 1-1.976-.736 2.803 2.803 0 0 1-.713-2.03c0-.878.22-1.574.66-2.088a2.28 2.28 0 0 1 1.818-.76 2.232 2.232 0 0 1 1.695.65c.436.493.66 1.138.62 1.794v.62h-3.61c-.014.445.14.877.427 1.215.3.296.71.45 1.132.424.3.002.6-.03.894-.092.306-.07.604-.17.89-.3v.937c-.27.13-.558.225-.853.283-.325.06-.654.088-.984.084zm5.552-.931a1.25 1.25 0 0 0 1.033-.4c.216-.267.327-.7.334-1.295v-.162c0-.682-.11-1.168-.334-1.455a1.234 1.234 0 0 0-1.053-.432 1.056 1.056 0 0 0-.936.493 2.53 2.53 0 0 0-.33 1.403c-.03.48.08.956.32 1.373.215.316.583.493.965.465v.01zm-.31.93a1.876 1.876 0 0 1-1.578-.733c-.38-.49-.568-1.177-.568-2.063 0-.886.19-1.578.576-2.076.38-.493.974-.77 1.595-.742a1.866 1.866 0 0 1 1.626.79h.06a6.654 6.654 0 0 1-.085-.922v-1.974h1.155v7.632h-.903l-.2-.71h-.052c-.364.532-.98.835-1.624.8z" fill="#FFF" /><path d="M72.35 17.147l-.67-1.95c-.05-.13-.116-.337-.202-.618a16.538 16.538 0 0 1-.18-.62c-.1.447-.23.886-.386 1.316l-.647 1.866 2.086.005zm1.025 2.998l-.705-1.99h-2.75l-.7 1.99h-1.234l2.68-7.192h1.272l2.68 7.192h-1.243zm3.6 0h-1.17v-6.158h-2.106v-1.003h5.383v1.003h-2.105m3.533 2.566c0 .877.175 1.546.526 2.007.825.873 2.2.91 3.073.086l.084-.085c.35-.45.526-1.12.526-2.013 0-.89-.176-1.557-.526-1.997a1.87 1.87 0 0 0-1.58-.682 1.902 1.902 0 0 0-1.578.682c-.353.458-.53 1.126-.53 2.003h.003zm5.465 0c0 1.166-.29 2.072-.874 2.718-.58.647-1.406.97-2.475.972-1.08 0-1.91-.32-2.49-.963-.578-.643-.868-1.554-.868-2.735 0-1.183.292-2.09.874-2.724.583-.632 1.415-.95 2.496-.95 1.065 0 1.887.323 2.468.967.58.644.87 1.55.87 2.716zm1.169 3.592v-7.16h1.17v6.157h3.04v1.003" fill="#FFF" /><path d="M54.71 20.145l-.16-.71h-.06a1.615 1.615 0 0 1-.683.59c-.316.15-.662.223-1.01.217-.657 0-1.146-.163-1.47-.49-.322-.326-.49-.82-.5-1.484v-3.542h1.16v3.342c-.02.333.072.663.264.935.203.22.494.333.79.31.4.03.79-.13 1.054-.434.226-.29.34-.773.34-1.454v-2.7h1.154v5.42h-.88zm-7.614 0h-1.16v-7.16h4.042v.99h-2.882v2.238h2.7v.995h-2.7m9.9 2.937h1.15v-7.632h-1.15m2.534 7.632h1.15v-7.632h-1.15m1.97 2.213h1.257l1.102 3.07c.156.4.268.813.333 1.236h.04c.04-.222.093-.44.16-.656.08-.256.494-1.473 1.245-3.652h1.242l-2.315 6.136c-.422 1.13-1.123 1.692-2.106 1.69-.25 0-.5-.028-.745-.084v-.905c.194.042.393.06.592.058.556 0 .946-.32 1.17-.965l.2-.51-2.176-5.417z" fill="#FFF" /><path d="M27.816 22.77L30.18 9.538 24.352 8.5s-6.58 3.38-3.42 9.666a8.287 8.287 0 0 0 6.883 4.605zm-7.361 3.06a1.773 1.773 0 0 0 1.53.262.61.61 0 0 0 .181-1.018 1.437 1.437 0 0 0-.732-.314 1.445 1.445 0 0 0-.79.043.604.604 0 0 0-.182 1.018l-.008.01z" fill="#231F20" mask="url(#atol-logo-c)" transform="translate(2 2)" /><path d="M19.31 24.087l-.06.347-1.16-.208-.285 1.61-.816-.146.286-1.61-1.163-.204.06-.344 3.138.555zm.164 1.034a.879.879 0 0 1 .708-.7c.432-.1.883-.1 1.315 0 .438.056.858.21 1.227.453l.008-.007c.325.18.502.544.442.91a.893.893 0 0 1-.72.72c-.434.1-.885.1-1.317 0a2.897 2.897 0 0 1-1.23-.456.895.895 0 0 1-.433-.92zm-4.69.177l-.18-.445-1.43-.253-.332.353-.845-.15 1.727-1.708.913.163 1.024 2.197-.876-.158zm-4.455 1.637l16.25 2.85 1.075-6.053s-5.263.644-9.09-3.36c-3.826-4.007-3.878-8.775-1.46-13.13L13.9 6.67l-3.57 20.264z" fill="#231F20" mask="url(#atol-logo-c)" transform="translate(2 2)" /><path fill="#231F20" mask="url(#atol-logo-c)" d="M13.456 24.3l.983.176-.348-.855" transform="translate(2 2)" /><path d="M13.456 24.3l.636-.68.347.856-.984-.177zm1.18-1.042l-.912-.163-1.727 1.708.845.15.332-.354 1.43.253.18.444.877.158-1.023-2.197zm1.477.618l1.163.205-.287 1.61.815.147.284-1.61 1.16.207.06-.347-3.136-.556m4.238 1.435a.586.586 0 0 1 .235-.164c.254-.087.527-.102.79-.042.268.033.522.142.73.314a.61.61 0 0 1-.181 1.018 1.774 1.774 0 0 1-1.53-.263l.01-.01a.603.603 0 0 1-.055-.853m-.502 1.073c.37.244.79.4 1.23.455.432.1.882.1 1.315 0a.888.888 0 0 0 .72-.72.879.879 0 0 0-.44-.91l-.01.01a2.878 2.878 0 0 0-1.226-.454c-.432-.1-.883-.1-1.316 0a.877.877 0 0 0-.706.7.894.894 0 0 0 .434.92m4.866-.983l-.806-.142-.35 1.952 2.727.482.063-.347-1.92-.343" fill="#FFF" mask="url(#atol-logo-c)" transform="translate(2 2)" /><path d="M6.59 23.308l.1.368c.084.31-.166.64-.637.77a.791.791 0 0 1-.95-.312c-.06-.12-.11-.248-.148-.38l1.635-.446zm-1.958.54c.292 1.065.73 1.776 1.78 1.486.672-.184.88-.718.656-1.542l-.397-1.458-4.065 1.108c.053.145.113.29.153.437.04.146.063.3.092.452l1.782-.485zm3.223 2.728c.19.32.463.695.074 1.04a1.55 1.55 0 0 1-.25.18c-.546.32-.983.2-1.246-.385l1.42-.834zm-1.05 1.73a1.1 1.1 0 0 0 1.44.262.918.918 0 0 0 .487-.905 2.502 2.502 0 0 0-.398-.92l-.663-1.13-3.644 2.134c.09.116.185.245.264.38.078.133.142.275.207.413l1.7-.998.02.04c-.12.234-.288.526-.383.69l-.744 1.28c.105.153.205.3.307.464.103.163.182.334.264.497l.206-.395c.308-.608.6-1.22.94-1.813zm1.842 2.699h-.01c.918-1.036 1.726-1.184 2.368-.623.692.61.377 1.537-.15 2.13-.67.767-1.63 1.183-2.326.578-.696-.606-.41-1.485.117-2.085m2.898 2.27c.63-.722 1.052-1.99-.263-3.146-1.153-1.01-2.474-.85-3.28.07-.92 1.052-.755 2.263.264 3.158l-.005-.01c1.135.992 2.495.83 3.285-.074m1.652-1.523c-.02.09-.043.177-.073.263-.04.08-.085.156-.135.23.37.1.73.225 1.084.376l-1.5 3.46c.147.05.284.094.434.154.15.06.28.14.413.21l1.49-3.475c.335.154.66.33.974.525.02-.09.047-.178.08-.263a1.6 1.6 0 0 1 .128-.224l-2.895-1.258zm3.527 1.395l-.674 4.126 2.308.393a1.542 1.542 0 0 1 .016-.263c.018-.09.042-.177.073-.263-.474-.02-.947-.072-1.415-.153l.263-1.54.63.108c.248.044.494.103.735.18a2.325 2.325 0 0 1 0-.264c.02-.09.045-.177.074-.263a5.562 5.562 0 0 1-.752-.07l-.63-.11.222-1.3c.47.068.932.176 1.384.322a1.924 1.924 0 0 1 0-.263c.02-.09.044-.177.074-.263l-2.308-.375zm5.56 4.115c-.942.093-1.526-.584-1.63-1.636-.086-.903.233-1.913 1.246-2.014.41-.023.807.15 1.068.466h.087c.03-.218.042-.43.08-.642a2.775 2.775 0 0 0-1.275-.18c-1.334.128-2.36.962-2.207 2.56.13 1.26 1.184 1.968 2.5 1.84.42-.03.825-.16 1.184-.377l.084-.527-.083-.053a1.724 1.724 0 0 1-1.053.563m3.768-.602c.14-.07.276-.142.418-.197.143-.055.296-.094.443-.14l-1.38-3.504a9.07 9.07 0 0 1 1.054-.32 2.444 2.444 0 0 1-.124-.238 1.984 1.984 0 0 1-.066-.263L23.45 33.15c.047.073.088.15.124.23.028.085.052.173.07.262.333-.19.677-.356 1.032-.497l1.377 3.513zm4.892-3.376c-.352.317-.723.614-1.11.886l-.898-1.273.526-.37c.207-.143.425-.273.65-.388a2.114 2.114 0 0 1-.18-.198 1.96 1.96 0 0 1-.125-.235 5.43 5.43 0 0 1-.587.482l-.525.368-.763-1.078a8.27 8.27 0 0 1 1.21-.75 1.143 1.143 0 0 1-.305-.435l-1.91 1.347 2.41 3.42 1.913-1.35a1.5 1.5 0 0 1-.176-.197 1.579 1.579 0 0 1-.13-.23m2.397-2.211l-.324.412-2.715-2.153.373-.472c.537-.682 1.232-.83 2.14-.113 1.118.892 1.052 1.663.526 2.326m.103-3.118c-.79-.623-1.842-.77-2.695.232l-1.305 1.65 3.28 2.592 1.067-1.347c.784-.99.745-2.267-.347-3.128M18.326 4.46a.445.445 0 0 1-.45.156h-.002a.446.446 0 0 1-.358-.316 1.02 1.02 0 0 1-.037-.545c.027-.176.1-.343.21-.484a.438.438 0 0 1 .43-.152c.172.02.32.13.385.29.06.17.07.35.034.526-.024.19-.098.373-.214.526m.29 1.672c.31-.445.512-.955.594-1.49a2.886 2.886 0 0 0-.002-1.358c-.06-.19-.174-.36-.326-.492-.19-.14-.41-.23-.643-.263a1.227 1.227 0 0 0-1.053.217c-.28.264-.46.618-.506 1-.127.8.173 1.274.925 1.427.303.07.62-.03.826-.264l.002.014a1.97 1.97 0 0 1-.36.815.793.793 0 0 1-.79.276 1.532 1.532 0 0 1-.65-.284l-.216.64c.244.14.51.238.79.286a1.358 1.358 0 0 0 1.41-.526m1.793-.263c.028-.19.104-.37.218-.526a.452.452 0 0 1 .442-.155c.17.02.312.134.37.295.056.18.066.372.028.557a1 1 0 0 1-.203.486.431.431 0 0 1-.44.16.472.472 0 0 1-.373-.29.962.962 0 0 1-.042-.528m.3 1.395c.367.09.755.006 1.053-.226.275-.263.45-.612.498-.99.13-.798-.176-1.274-.924-1.43a.878.878 0 0 0-.826.265c.054-.298.183-.578.374-.814a.789.789 0 0 1 .776-.28c.123.02.243.057.355.112.105.048.206.107.3.174l.208-.624a2.455 2.455 0 0 0-.788-.287c-.62-.093-1.085.076-1.395.508-.314.443-.52.954-.6 1.49-.047.224-.072.45-.074.68-.007.214.023.43.087.634.113.423.432.68.958.79m3.695-2.622l-.545 3.105.782.137.708-4.018-.692-.124-1.316.742.308.598m3.082 2.042h.002a.57.57 0 0 1 .227-.395c.12-.09.256-.156.4-.193.16.077.3.186.416.318.114.14.157.324.12.5a.536.536 0 0 1-.24.374.572.572 0 0 1-.427.073.57.57 0 0 1-.383-.242.524.524 0 0 1-.115-.436m.373-1.91a.447.447 0 0 1 .25-.338.683.683 0 0 1 .413-.052c.134.02.254.092.332.202.07.118.09.26.058.392a.614.614 0 0 1-.19.332.844.844 0 0 1-.352.18 1.935 1.935 0 0 1-.184-.135 1.23 1.23 0 0 1-.182-.156.605.605 0 0 1-.12-.195.41.41 0 0 1-.025-.232m.027 3.184c.342.076.7.035 1.018-.115.297-.173.493-.477.526-.82.082-.46-.113-.854-.592-1.194.222-.048.424-.16.582-.323.134-.148.225-.33.263-.527a.853.853 0 0 0-.264-.81 1.796 1.796 0 0 0-.877-.387 1.477 1.477 0 0 0-.927.098.965.965 0 0 0-.5.743.91.91 0 0 0 .082.585c.09.187.227.347.397.466v.014c-.45.075-.807.423-.895.87-.082.343.017.703.264.953.25.245.574.403.922.45" fill="#231F20" mask="url(#atol-logo-c)" transform="translate(2 2)" /></g></svg>