<svg xmlns="http://www.w3.org/2000/svg" viewBox="0 0 100 100" color="white">
    <path d="M96.976 44.064c0-20.319-19.679-36.933-44.257-37.889v-2.59A3.57 3.57 0 0 0 49.134 0a3.57 3.57 0 0 0-3.586 3.586v2.749C22.245 8.367 4 24.502 4 44.064c0 .12 0 .279.04.398-.04.438 0 .877.12 1.315a3.61 3.61 0 0 0 3.465 2.67c.319 0 .637-.04.916-.12l21.233-5.698 15.774 3.467v50.318A3.57 3.57 0 0 0 49.134 100a3.57 3.57 0 0 0 3.585-3.586V46.016l15.974-3.745 23.861 5.976c1.913.478 3.864-.677 4.343-2.59.119-.398.119-.836.08-1.235v-.358zm-7.489-3.944l-17.289-4.343c-.517-7.968-3.704-15.22-9.002-20.837 13.942 3.745 24.379 13.427 26.291 25.18zm-40.274-.638L33.32 36.016c.677-9.88 6.493-18.088 15.855-22.39 9.321 4.262 15.097 12.39 15.854 22.19l-15.815 3.666zM34.116 16.096c-4.74 5.498-7.57 12.43-7.967 20.04l-14.62 3.944c1.753-10.717 10.556-19.682 22.587-23.984z" fill="currentColor" fill-rule="evenodd"/>
</svg>
