<svg xmlns="http://www.w3.org/2000/svg" viewBox="0 0 100 100">
    <path d="M79.286 0c-10 0-18.372 7.129-20.277 16.594h-37.46a3.544 3.544 0 0 0-3.174 1.94 3.6 3.6 0 0 0 .317 3.723l28.889 39.169V92.87h-5.476a3.553 3.553 0 0 0-3.572 3.565A3.553 3.553 0 0 0 42.105 100h18.61a3.553 3.553 0 0 0 3.572-3.564 3.553 3.553 0 0 0-3.572-3.565h-5.992V61.426l16.19-21.94c2.62 1.187 5.476 1.781 8.413 1.781C90.715 41.267 100 32 100 20.634 100 9.267 90.675 0 79.286 0zm-5.674 23.723l-22.5 30.534-22.5-30.534h45zm5.674 13.544c-2.063 0-4.087-.356-5.992-1.109l10.278-13.9a3.6 3.6 0 0 0 .317-3.723 3.544 3.544 0 0 0-3.174-1.94H63.096C64.921 9.346 71.47 3.96 79.286 3.96c9.206 0 16.706 7.486 16.706 16.674 0 9.188-7.5 16.633-16.706 16.633z" fill="currentColor" fill-rule="evenodd"/>
</svg>
