<svg xmlns="http://www.w3.org/2000/svg" viewBox="0 0 100 100" color="white">
    <path d="M52.781 15c-19.38 0-35.145 15.925-35.145 35.5 0 19.573 15.767 35.5 35.147 35.5S87.93 70.075 87.93 50.5C87.929 30.925 72.163 15 52.781 15m0 65.367c-16.305 0-29.57-13.399-29.57-29.867 0-16.47 13.265-29.867 29.57-29.867s29.57 13.398 29.57 29.867c0 16.468-13.265 29.867-29.57 29.867m0-52.53c-12.372 0-22.437 10.166-22.437 22.662 0 12.497 10.065 22.663 22.437 22.663 12.372 0 22.438-10.166 22.438-22.663 0-12.495-10.066-22.663-22.438-22.663m0 42.51c-10.834 0-19.648-8.903-19.648-19.846s8.814-19.846 19.648-19.846c10.835 0 19.649 8.903 19.649 19.846s-8.814 19.846-19.649 19.846M14.86 17.744c.77 0 1.394.631 1.394 1.409v12.77c0 4.045-2.914 7.409-6.732 8.08v41.844c0 .778-.624 1.409-1.394 1.409a1.4 1.4 0 0 1-1.394-1.409V40.003C2.914 39.332 0 35.968 0 31.923v-12.77c0-.778.624-1.409 1.394-1.409a1.4 1.4 0 0 1 1.395 1.409v12.77a5.389 5.389 0 0 0 3.944 5.2v-17.97c0-.778.624-1.409 1.394-1.409.77 0 1.394.631 1.394 1.409v17.97a5.387 5.387 0 0 0 3.943-5.2v-12.77c0-.778.625-1.409 1.395-1.409m84.982.77c.098.193.159.408.159.639v62.694c0 .778-.626 1.409-1.396 1.409-.77 0-1.394-.631-1.394-1.409V57.9c-.029 0-.056.005-.084.005-1.54 0-2.789-1.262-2.789-2.817V19.153c0-1.556 1.249-2.817 2.789-2.817 1.324 0 2.428.93 2.715 2.179" fill="currentColor"/>
</svg>
