<svg xmlns="http://www.w3.org/2000/svg" viewBox="0 0 40 35" id="icon-heart"><path d="M37.52 10.62c0 3.74-.56 5.86-4 9.38-2.9 2.91-10.61 10-13.14 12.35l-.34.31-.34-.31c-.4-.36-9.84-9-13.16-12.35s-4-5.71-4-9.42a8.56 8.56 0 0 1 2.33-5.17 8.58 8.58 0 0 1 6.2-2.89 11.13 11.13 0 0 1 8.19 4.12A.9.9 0 0 0 20 7a1 1 0 0 0 .73-.37c.58-.68 3.72-4.08 8.22-4.08a8.59 8.59 0 0 1 6.18 2.87 8.56 8.56 0 0 1 2.39 5.2z" /><path d="M40 10.35a11.12 11.12 0 0 0-3.07-6.68A11.07 11.07 0 0 0 29 0h-.08A13.55 13.55 0 0 0 20 3.75a18.44 18.44 0 0 0-1.58-1.26A12.81 12.81 0 0 0 11.07 0H11a11 11 0 0 0-7.92 3.67A11.1 11.1 0 0 0 0 10.34a2.68 2.68 0 0 0 0 .28c0 4.21.73 7.09 4.76 11.16 3 3 10.89 10.27 13.24 12.43a2.94 2.94 0 0 0 4 0c4.65-4.27 10.71-9.9 13.22-12.42 4-4.08 4.77-7 4.77-11.17.01-.09.01-.18.01-.27zm-6.86 9.3C30.28 22.51 22.68 29.52 20 32c-2.68-2.48-10.28-9.48-13.13-12.35C3.52 16.27 3 14.22 3 10.62a8.1 8.1 0 0 1 2.24-4.88A8.09 8.09 0 0 1 11.07 3c4.65 0 7.82 3.89 7.82 3.91a1.38 1.38 0 0 0 1.11.56 1.44 1.44 0 0 0 1.09-.53S24.29 3 28.92 3a8.1 8.1 0 0 1 5.84 2.72 8 8 0 0 1 2.24 4.9c0 3.59-.51 5.63-3.87 9.03z" fill="currentColor" /></svg>