<svg viewBox="0 0 100 100" xmlns="http://www.w3.org/2000/svg" id="icon-holidays"><path d="M12.838 38.681c2.008-2.717 8.112-8.23 12.562-10.554 4.45-2.323 9.57-4.41 19.493-3.78 9.924.63 17.17 6.497 19.847 9.215 2.678 2.717 8.467 10.002 8.94 18.587.433 8.585-.552 11.105-2.718 16.697-2.166 5.592-6.419 11.026-8.309 13.35-1.89 2.323-4.883 3.622-6.064 3.15-1.182-.433-2.166-1.181.551-4.804s6.695-10.554 7.325-17.524c.63-6.97-.276-11.932-3.899-17.249-3.623-5.316-8.742-9.766-14.177-11.932-4.686-1.89-11.538-1.457-16.067-.827-4.292.63-8.978 3.623-12.365 6.42-4.213 3.543-8.742 4.134-5.12-.749zm.705-10.041c2.993-1.497.827-6.971-1.812-9.885-2.638-2.914-5.946-5.238-9.096-3.544C-.515 16.904-.87 21 1.729 23.599c2.6 2.599 7.837 7.049 11.814 5.04zm23.435-11.278c3.307.67 4.922-5.002 4.607-8.9C41.27 4.563 40.089.665 36.584.074c-3.505-.59-6.3 2.442-5.828 6.064.472 3.663 1.89 10.397 6.222 11.224zm24.769 4.031c1.89 2.796 7.05-.039 9.57-3.032 2.52-2.993 4.45-6.576 2.362-9.451-2.087-2.875-6.182-2.717-8.427.158-2.244 2.874-5.986 8.624-3.505 12.325zm17.721 18.115c-.079 3.347 5.789 3.977 9.57 2.993 3.78-.985 7.403-2.835 7.363-6.38-.039-3.544-3.504-5.788-6.97-4.686-3.505 1.063-9.845 3.623-9.963 8.073zm1.694 22.919c-1.93 2.757 2.599 6.537 6.3 7.797 3.702 1.26 7.719 1.733 9.688-1.22 1.93-2.994.315-6.735-3.23-7.758-3.504-1.064-10.199-2.442-12.758 1.18zm-11.46 22.131c-3.23.985-1.969 6.734.158 10.042 2.126 3.269 5 6.143 8.387 5.001 3.348-1.142 4.411-5.119 2.284-8.112-2.165-2.993-6.576-8.23-10.829-6.93z" fill="currentColor" fill-rule="evenodd" /></svg>