<svg xmlns="http://www.w3.org/2000/svg" viewBox="0 0 100 100" width="24" height="24" color="#000">
<path fill="none" d="M-1-1h102v102H-1z" /><path fill="none" d="M0 0h100v100H0V0z" /><path d="M68.532.581H31.468C14.412.581.581 14.412.581 31.468v37.064c0 17.056 13.831 30.887 30.887 30.887h37.064c17.056 0 30.887-13.831 30.887-30.887V31.468C99.419 14.412 85.588.581 68.532.581h0zm21.62 67.951c0 11.922-9.698 21.62-21.62 21.62H31.468c-11.922 0-21.62-9.698-21.62-21.62V31.468c0-11.922 9.698-21.62 21.62-21.62h37.064c11.922 0 21.62 9.698 21.62 21.62v37.064h0z" /><path d="M50 25.29c-13.646 0-24.71 11.064-24.71 24.71S36.355 74.71 50 74.71 74.71 63.645 74.71 50 63.645 25.29 50 25.29zm0 40.153c-8.512 0-15.443-6.93-15.443-15.443 0-8.519 6.93-15.443 15.443-15.443S65.443 41.48 65.443 50c0 8.512-6.93 15.443-15.443 15.443z" /><circle r="3.293" cy="23.438" cx="76.562" />
</svg>