<svg xmlns="http://www.w3.org/2000/svg" id="Layer_1" data-name="Layer 1" viewBox="0 0 575.25 151.56"><defs><style>.cls-1{fill:#dc1915}.cls-2{fill:#203240}</style></defs><path d="m408.51 30.33-4.07 15.93h15.31s-3.18 14.8-5.5 25.52c-1.73 8-6.71 28.82-3.14 36.56 2.59 5.61 9.41 9 14.82 9.3 11.21.65 24.85.38 24.85.38l3.88-20.69-8.4.21s-7.37.35-8.41-3.44c-2.29-8.36 8.23-47.84 8.23-47.84h19.14l2.87-15.67-18.33-.26 5.76-25.88s-14.65-.43-18.1 0c-4.79.6-8.62 6.25-10.34 11.43a110.71 110.71 0 0 0-3.45 14.43ZM457.66 118s2.18-15.85 10.14-26.27c10.55-13.82 35.75-24.89 43.7-28.61 14.49-6.79 23.11-15.78 23.11-23.76 0-5.61-4.53-14.22-15.31-14.22s-20 9-21.11 21.12H470.6s3.89-21.53 16.6-31c10.19-7.61 17.9-10.84 31.89-11.41 15.95-.65 31 4.95 37.93 15.94 6.6 10.53 8.53 27.89-1.44 38.9-8.74 9.61-17.72 14.91-25.58 19.47-10.66 6.17-25 13.42-29.08 15.47-3.51 1.73-2.95 3.48-2.95 3.48h46.1c6.91 0 10.61-2.7 10.61-2.7s3 9.63-1.76 16A18.53 18.53 0 0 1 538 118Z" class="cls-1"/><path d="m378.34 64.53-35 .11S346 46.9 363.2 46.9c15.79 0 15.14 17.63 15.14 17.63m-15.47-34.72c-13.33.49-24 2.76-35.53 14.93-12.28 13-14.59 47.79-11.18 54.89s9.54 20.42 40.21 21.4c35.48 1.14 44-28.64 44-28.64h-28.11s-.26 9.34-14.76 9.61c-20.44.4-15.92-20.46-15.92-20.46h62.48s.07-1.27 1.13-17.61c1.14-17.53-15.19-35.12-42.32-34.12M299.34 37.73l7.13 17-3.25-.06-12.33-17s-3.26-.07-4.55-.12a17.23 17.23 0 0 1-2.13-.18c-1.11 6.84-2.59 15.78-4.51 25.53-3.7 19.1-3.44 32.66-19.91 32.66-5.23 0-10.16-2.38-10.18-6.25 0-7 1-19.08 1-19.08l-27.84-.12s-1.25 11.62-1.25 24c0 11.23 12.25 25.8 36.51 25.72 18.51-.07 30.77-4.38 41.43-19.53 5.33-7.56 8-25.53 12.11-45.21 1.21-5.72 2.44-11.49 3.62-17l-1.09-1.28Zm8.42-33.19c-5.41.1-11.87 1.16-15.5 5.51s-5.65 12.74-6.54 18c-.23 1.34-.5 3-.8 4.89.54 0 1-.07 1.42-.08 1.29 0 4.56-.11 4.56-.11l12.32-17 3.25-.08-7.13 17 14.79.85 2.76-3.22c3.17-14.69 5.63-25.84 5.63-25.84s-9.34-.1-14.76 0M567.6 6.29h.84c1 0 1.77-.35 1.77-1.25 0-.64-.46-1.27-1.77-1.27a7.85 7.85 0 0 0-.84 0Zm0 4h-1.15V3a12.6 12.6 0 0 1 2-.17 3.78 3.78 0 0 1 2.26.55 1.71 1.71 0 0 1 .66 1.5A1.81 1.81 0 0 1 570 6.69c.65.12 1.08.7 1.23 1.77a5.9 5.9 0 0 0 .46 1.8h-1.22a5.43 5.43 0 0 1-.47-1.81 1.36 1.36 0 0 0-1.56-1.27h-.82ZM568.83 1a5.37 5.37 0 0 0-5.22 5.5 5.23 5.23 0 1 0 10.45 0 5.35 5.35 0 0 0-5.21-5.5Zm0-1a6.42 6.42 0 0 1 6.4 6.51 6.44 6.44 0 1 1-12.88 0A6.47 6.47 0 0 1 568.83 0Z" class="cls-1"/><path d="M14.69 32.38h29.88l-2.26 13.56q9.75-16.17 27.06-16.17 16.53 0 22.28 16.17 8.5-15.73 26.24-15.73 11.64 0 18.64 6.56t7 17.69a57.64 57.64 0 0 1-.78 8.61l-9.54 57.11H99.8l8.78-52.07a45.08 45.08 0 0 0 .61-6.17q0-7.65-7-7.65a9 9 0 0 0-7.07 3.22q-2.83 3.21-4.39 12.34l-8.44 50.33H49.81l8.78-52.07a48.89 48.89 0 0 0 .78-6.78q0-4-2.25-5.74a7.61 7.61 0 0 0-4.69-1.74 13.14 13.14 0 0 0-6.08 2q-3.65 2-5.3 12.21l-8.79 52.07H0Z" class="cls-2"/><path d="m234.72 32.38-41.91 89q-9.24 19.55-18.93 24.87t-23.06 5.32a69.58 69.58 0 0 1-13.9-1.47l.09-23.56q11.09 1.13 16.49 1.13 13.53 0 13.53-7.23a25.59 25.59 0 0 0-1.05-5.74l-21.23-82.32h35l7.5 35.29A114.19 114.19 0 0 1 189.39 79c.58-1.09 1.24-2.57 2-4.43a45.85 45.85 0 0 1 2.17-5L211 32.38Z" class="cls-2"/></svg>