<svg xmlns="http://www.w3.org/2000/svg" viewBox="0 0 100 100" width="50" height="50">
    <path fill="#0f61e6" d="M50 100a3.543 3.543 0 0 1-2.124-.705C46.342 98.119 10 70.61 10 39.85 10 17.868 27.935 0 50 0s40 17.868 40 39.851C90 52.9 83.589 66.89 70.885 81.466c-9.243 10.658-18.407 17.554-18.8 17.829-.59.47-1.338.705-2.085.705zm0-92.947c-18.171 0-32.92 14.734-32.92 32.798 0 23.276 25.329 45.846 32.92 52.116 7.591-6.27 32.92-28.88 32.92-52.116C82.92 21.748 68.171 7.053 50 7.053z"/>
    <path fill="#0f61e6" d="M50 58c-10.487 0-19-8.513-19-19s8.513-19 19-19 19 8.513 19 19-8.513 19-19 19zm0-31.035c-6.617 0-12.035 5.38-12.035 12.035A12.023 12.023 0 0 0 50 51.035 12.023 12.023 0 0 0 62.035 39c0-6.656-5.418-12.035-12.035-12.035z"/>
</svg>
