<svg viewBox="0 0 100 100" xmlns="http://www.w3.org/2000/svg" id="icon-my-bookings"><g fill="currentColor" fill-rule="evenodd"><path d="M86.93 100H25.109C17.869 100 12 93.442 12 85.413c0-1.987 1.565-3.577 3.522-3.577 1.956 0 3.521 1.59 3.521 3.577 0 4.094 2.74 7.433 6.065 7.433h61.784c3.365 0 6.065-3.339 6.065-7.433V14.587c0-4.094-2.74-7.433-6.065-7.433H25.108c-3.365 0-6.065 3.339-6.065 7.433 0 1.987-1.565 3.577-3.521 3.577-1.957 0-3.522-1.59-3.522-3.577C12 6.558 17.87 0 25.108 0h61.784C94.13 0 100 6.558 100 14.587v70.866C100.039 93.482 94.17 100 86.93 100z" /><path d="M24.441 54H3.52C1.564 54 0 52.222 0 50s1.564-4 3.52-4h20.96c1.956 0 3.52 1.778 3.52 4s-1.603 4-3.559 4zm0-17H3.52C1.564 37 0 35.222 0 33s1.564-4 3.52-4h20.96c1.956 0 3.52 1.778 3.52 4s-1.603 4-3.559 4zm0 35H3.52C1.564 72 0 70.222 0 68s1.564-4 3.52-4h20.96c1.956 0 3.52 1.778 3.52 4s-1.603 4-3.559 4zM70.05 57.357c4.653 1.897 3.218.465 6.98 2.362C83 62.662 83 70.754 83 70.754A2.249 2.249 0 0 1 80.751 73H37.25A2.249 2.249 0 0 1 35 70.754s0-8.131 5.97-11.035c3.8-1.859 2.327-.349 6.98-2.285 4.653-1.936 5.777-2.555 5.777-2.555l.039-4.376s-1.745-1.316-2.288-5.46c-1.085.31-1.473-1.277-1.512-2.284-.039-.968-.62-3.988.737-3.717-.272-2.013-.466-3.833-.388-4.84.349-3.369 3.645-6.931 8.724-7.202 5.97.271 8.375 3.795 8.685 7.202.077.968-.117 2.788-.388 4.801 1.318-.27.775 2.75.698 3.718-.039 1.006-.427 2.555-1.512 2.284-.543 4.143-2.288 5.46-2.288 5.46l.039 4.375s1.124.62 5.777 2.517z" /></g></svg>