<svg xmlns="http://www.w3.org/2000/svg" xmlns:xlink="http://www.w3.org/1999/xlink" viewBox="0 0 243.2 33" id="icon-payment-logos"><style type="text/css">#icon-payment-logos .st0{fill-rule:evenodd;clip-rule:evenodd;fill:#FFFFFF;}#icon-payment-logos .st1{fill:#00A2D7;}#icon-payment-logos .st2{fill:url(#icon-payment-logos_SVGID_2_);}#icon-payment-logos .st3{fill:url(#icon-payment-logos_SVGID_3_);}#icon-payment-logos .st4{fill:url(#icon-payment-logos_SVGID_5_);}#icon-payment-logos .st5{fill:url(#icon-payment-logos_SVGID_6_);}#icon-payment-logos .st6{fill:url(#icon-payment-logos_SVGID_8_);}#icon-payment-logos .st7{fill:url(#icon-payment-logos_SVGID_9_);}#icon-payment-logos .st8{fill:url(#icon-payment-logos_SVGID_11_);}#icon-payment-logos .st9{fill:url(#icon-payment-logos_SVGID_12_);}#icon-payment-logos .st10{fill:url(#icon-payment-logos_SVGID_14_);}#icon-payment-logos .st11{fill:url(#icon-payment-logos_SVGID_15_);}#icon-payment-logos .st12{fill:#FFFFFF;}#icon-payment-logos .st13{fill:#2A2A6C;}#icon-payment-logos .st14{fill:#7673C0;}#icon-payment-logos .st15{fill:#EB001B;}#icon-payment-logos .st16{fill:#00A1DF;}#icon-payment-logos .st17{fill:#FF5F00;}#icon-payment-logos .st18{fill:#F79E1B;}#icon-payment-logos .st19{fill:#FFFFFF;stroke:#D1D3D4;stroke-width:0.5;}#icon-payment-logos .st20{fill:#009CDE;}#icon-payment-logos .st21{fill:#003087;}#icon-payment-logos .st22{fill:#012169;}</style><desc>Created with Sketch.</desc><g id="icon-payment-logos_payments_footer"><g transform="translate(1.000000, 1.000000)"><g transform="translate(139.000000, 0.000000)"><path id="icon-payment-logos_Path" class="st0" d="M47.1,0H2.9C1.3,0,0,1.3,0,2.9V28c0,1.7,1.3,3,2.9,3H47c1.6,0,2.9-1.3,2.9-2.9V2.9C50,1.3,48.7,0,47.1,0L47.1,0z" /><path id="icon-payment-logos_Shape" class="st1" d="M47.1,0.5c1.4,0,2.5,1.1,2.5,2.4V28c0,1.4-1.1,2.4-2.5,2.4H2.9c-1.4,0-2.5-1.1-2.5-2.4V2.9c0-1.4,1.1-2.4,2.5-2.4H47.1L47.1,0.5z M47.1,0H2.9C1.3,0,0,1.3,0,2.9V28c0,1.7,1.3,3,2.9,3H47c1.6,0,2.9-1.3,2.9-2.9V2.9C50,1.3,48.7,0,47.1,0L47.1,0z" /><g id="icon-payment-logos_Group" transform="translate(3.634503, 8.724172)"><g transform="translate(0.000000, -0.000000)"><radialGradient id="icon-payment-logos_SVGID_2_" cx="-2292.1394" cy="304.3061" r="10.515" gradientTransform="matrix(4.7941 0 0 4.7941 10994.5449 -1468.5679)" gradientUnits="userSpaceOnUse"><stop offset="0" style="stop-color:#00B1E7" /><stop offset="0.427" style="stop-color:#0098CD" /><stop offset="0.5244" style="stop-color:#008DBE" /><stop offset="0.8403" style="stop-color:#006C91" /><stop offset="1" style="stop-color:#005F80" /></radialGradient><path id="icon-payment-logos_SVGID_1_" class="st2" d="M21.8,5.2v-1c0,0,0-0.8-0.9-0.8h-1.3v1.8h-1.3V0.1h3.2c0,0,1.6-0.2,1.6,1.5c0,0.9-0.7,1.2-0.7,1.2S23,3.1,23,4v1.3L21.8,5.2 M19.7,2.2H21c0.4,0,0.7-0.2,0.7-0.5S21.4,1.3,21,1.3h-1.3V2.2L19.7,2.2" /><radialGradient id="icon-payment-logos_SVGID_3_" cx="-2323.6921" cy="282.1673" r="9.7532" gradientTransform="matrix(5.1681 0 0 5.1681 12014.9219 -1467.9395)" gradientUnits="userSpaceOnUse"><stop offset="0" style="stop-color:#00B1E7" /><stop offset="0.427" style="stop-color:#0098CD" /><stop offset="0.5244" style="stop-color:#008DBE" /><stop offset="0.8403" style="stop-color:#006C91" /><stop offset="1" style="stop-color:#005F80" /></radialGradient><path id="icon-payment-logos_SVGID_4_" class="st3" d="M37.1,5.2L35,1.8v3.4h-1h-0.2h-1.2l-0.5-1.1h-2.4l-0.5,1.1H28h-0.2h-0.6c0,0-1.8-0.2-1.8-2.4c0-2.8,2-2.7,2.1-2.7h1.6v1.2h-1.3c0,0-0.9,0-1,1.1c0,0.1,0,0.2,0,0.4c0,1.7,1.5,1.2,1.6,1.2L30,0.1h1.8l1.9,4.6V0.1h1.8l2,3.4V0.1h1.3v5.1H37.1 M30.3,2.8h1.3L31,1.3L30.3,2.8L30.3,2.8" /><radialGradient id="icon-payment-logos_SVGID_5_" cx="-2317.7544" cy="284.8721" r="9.8471" gradientTransform="matrix(5.1189 0 0 5.1189 11870.1826 -1467.908)" gradientUnits="userSpaceOnUse"><stop offset="0" style="stop-color:#00B1E7" /><stop offset="0.427" style="stop-color:#0098CD" /><stop offset="0.5244" style="stop-color:#008DBE" /><stop offset="0.8403" style="stop-color:#006C91" /><stop offset="1" style="stop-color:#005F80" /></radialGradient><path id="icon-payment-logos_SVGID_7_" class="st4" d="M11.6,5.2V1.7L10,5.2H8.9L7.3,1.7v3.5H6.1H6H4.7L4.3,4.1H1.9L1.4,5.2H0l2.2-5.1H4l2,4.7V0.1h2l1.4,3.2l1.4-3.2h2.1v5.1H11.6 M2.4,2.8h1.3L3.1,1.3L2.4,2.8L2.4,2.8" /><radialGradient id="icon-payment-logos_SVGID_6_" cx="-2209.1577" cy="360.0437" r="12.4293" gradientTransform="matrix(4.0557 0 0 4.0558 8965.5342 -1469.9589)" gradientUnits="userSpaceOnUse"><stop offset="0" style="stop-color:#00B1E7" /><stop offset="0.427" style="stop-color:#0098CD" /><stop offset="0.5244" style="stop-color:#008DBE" /><stop offset="0.8403" style="stop-color:#006C91" /><stop offset="1" style="stop-color:#005F80" /></radialGradient><polyline id="icon-payment-logos_SVGID_10_" class="st5" points="13.6,5.2 13.6,0.1 17.7,0.1 17.7,1.3 15,1.3 15,2.1 17.6,2.1 17.6,3.2 15,3.2 15,4.1 17.7,4.1 17.7,5.2 13.6,5.2 " /><radialGradient id="icon-payment-logos_SVGID_8_" cx="-1087.616" cy="1127.8475" r="38.7922" gradientTransform="matrix(1.2994 0 0 1.2994 1419.0798 -1475.2021)" gradientUnits="userSpaceOnUse"><stop offset="0" style="stop-color:#00B1E7" /><stop offset="0.427" style="stop-color:#0098CD" /><stop offset="0.5244" style="stop-color:#008DBE" /><stop offset="0.8403" style="stop-color:#006C91" /><stop offset="1" style="stop-color:#005F80" /></radialGradient><polyline id="icon-payment-logos_SVGID_13_" class="st6" points="23.7,5.2 23.7,0.1 25,0.1 25,5.2 23.7,5.2 " /></g><g transform="translate(9.351852, 8.662768)"><radialGradient id="icon-payment-logos_SVGID_9_" cx="-2330.5938" cy="302.6125" r="10.5142" gradientTransform="matrix(4.7941 0 0 4.7941 11169.5479 -1469.1099)" gradientUnits="userSpaceOnUse"><stop offset="0" style="stop-color:#00B1E7" /><stop offset="0.427" style="stop-color:#0098CD" /><stop offset="0.5244" style="stop-color:#008DBE" /><stop offset="0.8403" style="stop-color:#006C91" /><stop offset="1" style="stop-color:#005F80" /></radialGradient><path id="icon-payment-logos_SVGID_16_" class="st7" d="M17.5,5.2v-1c0,0,0-0.8-0.9-0.8h-1.3v1.8H14V0.1h3.2c0,0,1.6-0.2,1.6,1.5c0,0.9-0.7,1.2-0.7,1.2s0.6,0.3,0.6,1.2v1.3h-1.2 M15.3,2.2h1.3c0.4,0,0.7-0.2,0.7-0.5S17,1.2,16.6,1.2h-1.3V2.2L15.3,2.2" /><radialGradient id="icon-payment-logos_SVGID_11_" cx="-2358.0024" cy="281.7623" r="9.7982" gradientTransform="matrix(5.1447 0 0 5.1447 12127.7041 -1467.9193)" gradientUnits="userSpaceOnUse"><stop offset="0" style="stop-color:#00B1E7" /><stop offset="0.427" style="stop-color:#0098CD" /><stop offset="0.5244" style="stop-color:#008DBE" /><stop offset="0.8403" style="stop-color:#006C91" /><stop offset="1" style="stop-color:#005F80" /></radialGradient><path id="icon-payment-logos_SVGID_19_" class="st8" d="M8.8,5.2H7.7L6.3,3.7L4.9,5.2H4.1h-4V0.1h4h0.7l1.5,1.6l1.5-1.6h1l0,0H12c0,0,1.6-0.2,1.6,1.5c0,1.5-0.5,2-2.2,2h-1.3v1.7H8.8 M7.2,2.7l1.6,1.8V0.9L7.2,2.7L7.2,2.7 M1.4,4.1h2.7l1.3-1.4L4.1,1.3H1.4v0.8H4v1.2H1.4V4.1L1.4,4.1 M10.1,2.2h1.3c0.4,0,0.7-0.2,0.7-0.5s-0.3-0.5-0.7-0.5h-1.3V2.2L10.1,2.2" /><radialGradient id="icon-payment-logos_SVGID_12_" cx="-2286.0862" cy="334.5535" r="11.6109" gradientTransform="matrix(4.3412 0 0 4.3412 9920.8496 -1470.6968)" gradientUnits="userSpaceOnUse"><stop offset="0" style="stop-color:#00B1E7" /><stop offset="0.427" style="stop-color:#0098CD" /><stop offset="0.5244" style="stop-color:#008DBE" /><stop offset="0.8403" style="stop-color:#006C91" /><stop offset="1" style="stop-color:#005F80" /></radialGradient><path id="icon-payment-logos_SVGID_22_" class="st9" d="M26.3,5.2H24V4h2c0,0,0.7,0.1,0.7-0.4s-1.1-0.4-1.1-0.4s-1.8,0.2-1.8-1.5s1.6-1.6,1.6-1.6H28v1.2h-2c0,0-0.7-0.1-0.7,0.4c0,0.4,0.9,0.4,0.9,0.4s2-0.1,2,1.4c0,1.7-1.3,1.8-1.7,1.8C26.4,5.2,26.3,5.2,26.3,5.2" /><radialGradient id="icon-payment-logos_SVGID_14_" cx="-2250.2832" cy="358.3474" r="12.4288" gradientTransform="matrix(4.0557 0 0 4.0557 9122.9775 -1471.6768)" gradientUnits="userSpaceOnUse"><stop offset="0" style="stop-color:#00B1E7" /><stop offset="0.427" style="stop-color:#0098CD" /><stop offset="0.5244" style="stop-color:#008DBE" /><stop offset="0.8403" style="stop-color:#006C91" /><stop offset="1" style="stop-color:#005F80" /></radialGradient><polyline id="icon-payment-logos_SVGID_25_" class="st10" points="19.4,5.2 19.4,0.1 23.4,0.1 23.4,1.3 20.7,1.3 20.7,2.1 23.4,2.1 23.4,3.2 20.7,3.2 20.7,4.1 23.4,4.1 23.4,5.2 19.4,5.2 " /><radialGradient id="icon-payment-logos_SVGID_15_" cx="-2287.1426" cy="334.5535" r="11.6106" gradientTransform="matrix(4.3412 0 0 4.3412 9925.4355 -1470.6968)" gradientUnits="userSpaceOnUse"><stop offset="0" style="stop-color:#00B1E7" /><stop offset="0.427" style="stop-color:#0098CD" /><stop offset="0.5244" style="stop-color:#008DBE" /><stop offset="0.8403" style="stop-color:#006C91" /><stop offset="1" style="stop-color:#005F80" /></radialGradient><path id="icon-payment-logos_SVGID_28_" class="st11" d="M30.9,5.2h-2.3V4h2c0,0,0.7,0.1,0.7-0.4s-1.1-0.4-1.1-0.4s-1.8,0.2-1.8-1.5S30,0.1,30,0.1h2.5v1.2h-2c0,0-0.7-0.1-0.7,0.4c0,0.4,0.9,0.4,0.9,0.4s2-0.1,2,1.4c0,1.7-1.3,1.8-1.7,1.8C31,5.2,30.9,5.2,30.9,5.2" /></g></g></g><path class="st12" d="M49.9,29.4c0,1-0.8,1.9-1.9,1.9H1.9c-1,0-1.9-0.8-1.9-1.9V1.6c0-1,0.8-1.9,1.9-1.9h46.2c1,0,1.9,0.8,1.9,1.9v27.8" /><path class="st13" d="M19,8.9l-5.6,13.3H9.8L7.1,11.5c-0.2-0.7-0.3-0.9-0.8-1.2C5.4,9.9,4.1,9.5,2.9,9.2L3,8.8h5.8c0.7,0,1.4,0.5,1.6,1.4l1.4,7.7l3.6-9H19 M33.2,17.8c0-3.5-4.8-3.7-4.8-5.3c0-0.5,0.5-1,1.5-1.1c0.5-0.1,1.8-0.1,3.4,0.6l0.6-2.8c-0.8-0.3-1.9-0.6-3.2-0.6c-3.4,0-5.8,1.8-5.8,4.4c0,1.9,1.7,3,3,3.6c1.3,0.7,1.8,1.1,1.8,1.6c0,0.9-1.1,1.3-2.1,1.3c-1.7,0-2.7-0.5-3.5-0.8l-0.6,2.9c0.8,0.4,2.3,0.7,3.8,0.7C30.8,22.3,33.2,20.6,33.2,17.8 M42.1,22.1h3.2L42.6,8.9h-2.9c-0.7,0-1.2,0.4-1.5,1L33,22.1h3.6l0.7-2h4.4L42.1,22.1z M38.3,17.4l1.8-5l1,5H38.3z M23.9,8.9L21,22.1h-3.4l2.8-13.3L23.9,8.9L23.9,8.9z" /></g><g id="icon-payment-logos_maestro_paymark" transform="translate(97.000000, 1.000000)"><path class="st12" d="M12.1,30.8v-2c0-0.3-0.1-0.7-0.3-0.9c-0.2-0.3-0.5-0.4-0.9-0.4h-0.2c-0.5,0-0.9,0.2-1.1,0.6c-0.2-0.4-0.6-0.6-1.1-0.6c-0.4,0-0.8,0.2-1,0.5v-0.4H7v3.2h0.7V29c-0.1-0.4,0.2-0.8,0.6-0.9h0.1c0.5,0,0.7,0.3,0.7,0.9v1.8h0.7V29c0-0.2,0-0.4,0.1-0.6s0.3-0.3,0.5-0.3h0.1c0.5,0,0.7,0.3,0.7,0.9v1.8H12.1z M16.1,29.2v-1.6h-0.7V28c-0.2-0.3-0.6-0.5-1-0.5c-0.9,0-1.7,0.8-1.7,1.7c0,0.9,0.8,1.7,1.7,1.7c0.4,0,0.8-0.2,1-0.5v0.4h0.7V29.2z M13.5,29.2c0-0.5,0.5-1,1-0.9c0.5,0,1,0.5,1,1s-0.5,1-1,1C14,30.3,13.5,29.8,13.5,29.2C13.5,29.3,13.5,29.2,13.5,29.2z M31.3,27.5c0.2,0,0.5,0,0.7,0.1s0.4,0.2,0.6,0.4c0.2,0.2,0.3,0.3,0.4,0.5c0.2,0.4,0.2,0.9,0,1.4c-0.1,0.2-0.2,0.4-0.4,0.5c-0.2,0.2-0.4,0.3-0.6,0.4c-0.5,0.2-0.9,0.2-1.4,0c-0.2-0.1-0.4-0.2-0.5-0.4c-0.2-0.2-0.3-0.3-0.4-0.5c-0.2-0.4-0.2-0.9,0-1.4c0.1-0.2,0.2-0.4,0.3-0.5c0.2-0.2,0.3-0.3,0.5-0.4C30.8,27.6,31,27.5,31.3,27.5L31.3,27.5z M31.3,28.2c-0.1,0-0.3,0-0.4,0.1c-0.1,0-0.2,0.1-0.3,0.2c-0.4,0.4-0.4,1.1,0,1.5c0.1,0.1,0.2,0.2,0.3,0.2c0.3,0.1,0.5,0.1,0.8,0c0.1,0,0.2-0.1,0.3-0.2c0.1-0.1,0.2-0.2,0.2-0.3c0.1-0.3,0.1-0.6,0-0.9c0-0.1-0.1-0.2-0.2-0.3c-0.1-0.1-0.2-0.2-0.3-0.2C31.5,28.2,31.4,28.2,31.3,28.2L31.3,28.2z M20,29.2c0-0.4-0.1-0.9-0.4-1.2c-0.3-0.3-0.7-0.5-1.2-0.5c-0.9,0.1-1.6,0.8-1.6,1.7s0.7,1.6,1.6,1.7c0.5,0,1-0.2,1.3-0.5l-0.3-0.5c-0.3,0.2-0.6,0.3-0.9,0.3c-0.5,0.1-0.9-0.3-1-0.8H20C20,29.4,20,29.3,20,29.2L20,29.2z M17.6,28.9c0-0.5,0.4-0.8,0.9-0.8c0.2,0,0.4,0.1,0.6,0.2s0.2,0.4,0.3,0.6L17.6,28.9L17.6,28.9z M23,28.4c-0.3-0.2-0.6-0.3-1-0.3s-0.6,0.1-0.6,0.4s0.2,0.3,0.5,0.3h0.3c0.7,0.1,1.1,0.4,1.1,1s-0.5,1.1-1.5,1.1c-0.5,0-1-0.1-1.4-0.4l0.3-0.6c0.3,0.2,0.7,0.4,1.1,0.3c0.5,0,0.8-0.1,0.8-0.4s-0.2-0.3-0.6-0.3h-0.3c-0.7-0.1-1.1-0.4-1.1-1s0.5-1.1,1.4-1.1c0.5,0,0.9,0.1,1.3,0.3L23,28.4z M26.4,28.2h-1.2v1.5c0,0.3,0.1,0.5,0.5,0.5c0.2,0,0.4-0.1,0.6-0.2l0.2,0.6c-0.3,0.2-0.6,0.3-0.9,0.2c-0.8,0-1.1-0.5-1.1-1.2v-1.5h-0.7v-0.6h0.7v-1h0.7v1h1.2L26.4,28.2z M28.8,27.5c0.2,0,0.3,0,0.5,0.1l-0.2,0.7c-0.1-0.1-0.3-0.1-0.4-0.1c-0.5,0-0.7,0.3-0.7,0.8v1.8h-0.7v-3.2H28V28C28.2,27.7,28.5,27.5,28.8,27.5L28.8,27.5z M33.7,30.4L33.7,30.4c0.1,0,0.2,0,0.2,0.1l0.1,0.1c0,0.1,0,0.2,0,0.2s0,0.1-0.1,0.1L33.8,31h-0.1c-0.1,0-0.2-0.1-0.3-0.2c0-0.1,0-0.2,0-0.2s0-0.1,0.1-0.1l0.1-0.1L33.7,30.4L33.7,30.4z M33.7,30.9L33.7,30.9l0.2-0.1c0,0,0.1-0.1,0.1-0.2s0-0.1-0.1-0.2l-0.1-0.1h-0.1h-0.1l-0.1,0.1c-0.1,0.1-0.1,0.2,0,0.3S33.6,30.9,33.7,30.9L33.7,30.9z M33.7,30.5C33.8,30.5,33.8,30.5,33.7,30.5C33.8,30.6,33.8,30.6,33.7,30.5c0.1,0.1,0.1,0.1,0.1,0.1s0,0-0.1,0l0.1,0.1h-0.1l-0.1-0.1l0,0v0.1h-0.1v-0.3L33.7,30.5z M33.7,30.5L33.7,30.5l0.1,0.1l0,0l0,0L33.7,30.5z" /><g id="icon-payment-logos__Group_"><rect id="icon-payment-logos_Rectangle" x="14.6" y="2.8" class="st14" width="10.7" height="19.3" /><path id="icon-payment-logos__Path_" class="st15" d="M15.3,12.4c0-3.8,1.7-7.3,4.7-9.6C15-1.2,7.7-0.7,3.4,4s-4.4,12,0,16.7S15,26,20,22C17,19.7,15.3,16.2,15.3,12.4z" /><path class="st16" d="M38.7,20v-0.4h0.2v-0.1h-0.4v0.1h0.2V20L38.7,20z M39.5,20v-0.5h-0.1l-0.2,0.3L39,19.5h-0.1V20H39v-0.4l0.1,0.3h0.1l0.1-0.3L39.5,20L39.5,20z" /><path class="st16" d="M39.8,12.4c0,4.7-2.7,8.9-6.9,11S23.7,24.9,20,22c2.9-2.3,4.6-5.9,4.6-9.6S22.9,5.1,20,2.8c3.7-2.9,8.7-3.4,12.9-1.4S39.8,7.7,39.8,12.4L39.8,12.4z" /></g></g><g id="icon-payment-logos_mastercard_paymark" transform="translate(54.000000, 1.000000)"><path class="st12" d="M7.4,30.8v-2c0-0.3-0.1-0.6-0.3-0.9s-0.5-0.4-0.8-0.4H6.1c-0.4,0-0.9,0.2-1.1,0.5c-0.2-0.4-0.6-0.6-1.1-0.6c-0.4,0-0.8,0.2-1,0.5v-0.4H2.2v3.2h0.7V29c-0.1-0.4,0.2-0.8,0.7-0.9h0.1c0.5,0,0.7,0.3,0.7,0.9v1.8h0.7V29c-0.1-0.4,0.2-0.8,0.7-0.9h0.1c0.5,0,0.7,0.3,0.7,0.9v1.8H7.4z M18,27.6h-1.2v-1h-0.7v1h-0.7v0.6h0.7v1.5c0,0.8,0.3,1.2,1.1,1.2c0.3,0,0.6-0.1,0.9-0.3L17.9,30c-0.2,0.1-0.4,0.2-0.6,0.2c-0.3,0-0.5-0.2-0.5-0.5v-1.5H18V27.6z M24,27.5c-0.4,0-0.7,0.2-0.9,0.5v-0.4h-0.7v3.2h0.7V29c0-0.5,0.2-0.8,0.7-0.8c0.2,0,0.3,0,0.4,0.1l0.2-0.7C24.3,27.5,24.2,27.5,24,27.5L24,27.5z M14.9,27.8c-0.4-0.2-0.9-0.3-1.3-0.3c-0.8,0-1.4,0.4-1.4,1c0,0.7,0.4,0.9,1.1,1h0.3c0.4,0.1,0.6,0.2,0.6,0.3s-0.3,0.4-0.8,0.4c-0.4,0-0.8-0.1-1.1-0.3L12,30.4c0.4,0.3,0.9,0.4,1.4,0.4c0.9,0,1.5-0.4,1.5-1.1c0-0.6-0.4-0.9-1.1-1h-0.3c-0.3,0-0.6-0.1-0.6-0.3c0-0.2,0.2-0.4,0.6-0.4c0.4,0,0.7,0.1,1,0.3L14.9,27.8z M33.9,27.5c-0.4,0-0.7,0.2-0.9,0.5v-0.4h-0.7v3.2H33V29c0-0.5,0.2-0.8,0.7-0.8c0.2,0,0.3,0,0.4,0.1l0.2-0.7C34.2,27.5,34,27.5,33.9,27.5L33.9,27.5z M24.7,29.2c0,0.9,0.7,1.7,1.6,1.7h0.1c0.4,0,0.8-0.1,1.2-0.4L27.3,30c-0.2,0.2-0.5,0.3-0.9,0.3c-0.3,0-0.6-0.1-0.8-0.3s-0.3-0.5-0.2-0.8c0-0.6,0.4-1,1-1c0.3,0,0.6,0.1,0.9,0.3l0.3-0.6c-0.3-0.3-0.7-0.4-1.2-0.4c-0.9-0.1-1.7,0.6-1.7,1.5L24.7,29.2L24.7,29.2z M31.4,29.2v-1.6h-0.7V28c-0.2-0.3-0.6-0.5-1-0.5c-0.6,0-1.3,0.3-1.6,0.8s-0.3,1.2,0,1.8c0.3,0.5,0.9,0.9,1.6,0.8c0.4,0,0.8-0.2,1-0.5v0.4h0.7V29.2z M28.7,29.2c0-0.5,0.5-1,1-1s1,0.5,1,1s-0.4,1-1,1C29.2,30.3,28.8,29.8,28.7,29.2L28.7,29.2z M20.2,27.5c-0.9,0.1-1.6,0.8-1.6,1.7s0.7,1.6,1.6,1.7l0,0c0.5,0,1-0.1,1.4-0.4L21.3,30c-0.3,0.2-0.6,0.3-0.9,0.3c-0.5,0.1-0.9-0.3-1-0.8h2.4v-0.3c0-0.4-0.1-0.9-0.4-1.2C21,27.7,20.5,27.5,20.2,27.5L20.2,27.5z M20.2,28.1c0.2,0,0.4,0.1,0.6,0.2s0.2,0.4,0.3,0.6h-1.7C19.3,28.5,19.7,28.1,20.2,28.1L20.2,28.1z M37.9,29.2v-2.9h-0.7V28c-0.2-0.3-0.6-0.5-1-0.5c-0.6,0-1.3,0.3-1.6,0.8s-0.3,1.2,0,1.8c0.3,0.5,0.9,0.9,1.6,0.8c0.4,0,0.8-0.2,1-0.5v0.4h0.7V29.2z M39.1,30.4L39.1,30.4l0.2,0.1l0.1,0.1c0,0.1,0,0.2,0,0.2s0,0.1-0.1,0.1c0,0-0.1,0-0.1,0.1h-0.1c-0.1,0-0.3-0.1-0.3-0.2c-0.1-0.1,0-0.3,0.1-0.4L39.1,30.4C39,30.3,39.1,30.3,39.1,30.4L39.1,30.4z M39.1,30.9L39.1,30.9l0.2-0.1c0.1-0.1,0.1-0.2,0-0.3l-0.1-0.1h-0.1H39c0,0-0.1,0-0.1,0.1c-0.1,0.1-0.1,0.2,0,0.3L39.1,30.9C39,31,39.1,31,39.1,30.9L39.1,30.9z M39.1,30.5C39.1,30.5,39.2,30.5,39.1,30.5C39.2,30.6,39.2,30.6,39.1,30.5c0.1,0.1,0.1,0.1,0.1,0.1s0,0-0.1,0l0.1,0.1h-0.1H39l0,0v0.1l0,0L39.1,30.5L39.1,30.5z M39,30.6L39,30.6l0.1,0.1L39,30.6z M35.3,29.2c0-0.5,0.5-1,1-1s1,0.5,1,1s-0.4,1-1,1C35.8,30.3,35.3,29.8,35.3,29.2L35.3,29.2z M11.4,29.2v-1.6h-0.7V28c-0.2-0.3-0.6-0.5-1-0.5c-0.6,0-1.3,0.3-1.6,0.8s-0.3,1.2,0,1.8C8.4,30.7,9,31,9.7,30.9c0.4,0,0.8-0.2,1-0.5v0.4h0.7V29.2z M8.8,29.2c0-0.5,0.4-0.9,0.9-0.9s0.9,0.4,0.9,0.9s-0.4,0.9-0.9,0.9C9.2,30.2,8.8,29.8,8.8,29.2L8.8,29.2L8.8,29.2z" /><g><rect x="14.6" y="2.8" class="st17" width="10.7" height="19.3" /><path class="st15" d="M15.3,12.4c0-3.8,1.7-7.3,4.7-9.6c-5-4-12.2-3.4-16.6,1.3s-4.3,11.9,0,16.6S15,26,20,22.1C17,19.7,15.3,16.2,15.3,12.4L15.3,12.4z" /><path class="st18" d="M39.8,12.4c0,4.7-2.7,9-6.9,11S23.7,25,20,22.1c5.3-4.2,6.3-11.9,2.1-17.2c-0.6-0.8-1.3-1.5-2.1-2.1c3.7-2.9,8.7-3.4,12.9-1.4S39.8,7.7,39.8,12.4L39.8,12.4z" /><path class="st18" d="M38.7,20v-0.4h0.2v-0.1h-0.4v0.1h0.2V20L38.7,20z M39.5,20v-0.5h-0.1l-0.1,0.3L39,19.5h-0.1V20H39v-0.4l0.1,0.3h0.1l0.1-0.3L39.5,20L39.5,20z" /></g></g><g transform="translate(193.000000, 1.000000)"><g id="icon-payment-logos_paypal_mark"><rect class="st19" width="48" height="31" /><path class="st20" d="M29.2,22h-2.1c-0.1,0-0.3,0.1-0.3,0.2L26,26.8v0.1l0.1,0.1h1.1c0.1,0,0.2-0.1,0.2-0.1l0.2-1.3c0-0.1,0.1-0.2,0.3-0.2h0.7c0.6,0.1,1.2-0.1,1.6-0.4s0.7-0.8,0.8-1.3c0.1-0.4,0-0.8-0.3-1.2C30.3,22.1,29.7,22,29.2,22z M29.4,23.7c-0.1,0.6-0.7,0.6-1.2,0.6h-0.3l0.2-1.3c0-0.1,0.1-0.1,0.2-0.1h0.1c0.4,0,0.7,0,0.9,0.2C29.4,23.3,29.5,23.5,29.4,23.7L29.4,23.7z" /><path class="st21" d="M14.1,22H12c-0.1,0-0.3,0.1-0.3,0.2L11,26.8v0.1l0.1,0.1h1c0.1,0,0.3-0.1,0.3-0.2l0.2-1.2c0-0.1,0.1-0.2,0.3-0.2h0.7c0.6,0.1,1.2-0.1,1.6-0.4c0.4-0.3,0.7-0.8,0.8-1.3c0.1-0.4,0-0.8-0.3-1.2C15.3,22.1,14.7,21.9,14.1,22L14.1,22z M14.4,23.7c-0.1,0.6-0.7,0.6-1.2,0.6h-0.3l0.2-1.3c0-0.1,0.1-0.1,0.2-0.1h0.1c0.4,0,0.7,0,0.9,0.2C14.4,23.3,14.4,23.5,14.4,23.7L14.4,23.7z" /><path class="st21" d="M20.8,23.1h-1c-0.1,0-0.2,0.1-0.2,0.1v0.3l-0.1-0.1c-0.3-0.3-0.8-0.5-1.2-0.4c-1.2,0-2.1,0.9-2.3,2c-0.1,0.5,0,1.1,0.4,1.5c0.3,0.3,0.8,0.5,1.3,0.5s1-0.2,1.4-0.6v0.3v0.1l0.1,0.1h0.9c0.1,0,0.3-0.1,0.3-0.2l0.5-3.4C20.9,23.2,20.9,23.2,20.8,23.1C20.9,23.1,20.8,23.1,20.8,23.1L20.8,23.1z M19.4,25c-0.1,0.5-0.6,0.9-1.1,0.9c-0.3,0-0.5-0.1-0.7-0.3c-0.2-0.2-0.2-0.4-0.2-0.7c0.1-0.5,0.6-1,1.1-0.9c0.3,0,0.5,0.1,0.7,0.3C19.4,24.5,19.4,24.8,19.4,25L19.4,25z" /><path class="st20" d="M35.8,23.1h-1c-0.1,0-0.2,0.1-0.2,0.1v0.3l-0.1-0.1c-0.3-0.3-0.8-0.5-1.2-0.4c-1.2,0-2.1,0.9-2.3,2c-0.1,0.5,0,1.1,0.4,1.5c0.3,0.3,0.8,0.5,1.3,0.5s1-0.2,1.3-0.6v0.3v0.1l0.1,0.1H35c0.1,0,0.3-0.1,0.3-0.2l0.6-3.4L35.8,23.1C35.9,23.1,35.9,23.1,35.8,23.1L35.8,23.1z M34.4,25c-0.1,0.5-0.6,0.9-1.2,0.9c-0.3,0-0.5-0.1-0.7-0.3c-0.2-0.2-0.2-0.4-0.2-0.7c0.1-0.5,0.6-1,1.1-0.9c0.3,0,0.5,0.1,0.7,0.3C34.4,24.5,34.4,24.8,34.4,25L34.4,25z" /><path class="st21" d="M25.8,23h-1.1c-0.1,0-0.2,0-0.2,0.1l-1.4,2l-0.6-1.9c0-0.1-0.2-0.2-0.3-0.2h-1c-0.1,0-0.1,0-0.1,0.1c0,0,0,0.1,0,0.2l1.1,3.1l-1.1,1.4c0,0.1,0,0.1,0,0.2s0.1,0.1,0.2,0.1h1c0.1,0,0.2,0,0.2-0.1l3.5-4.6c0-0.1,0-0.1,0-0.2C26,23,25.9,23,25.8,23L25.8,23z" /><path class="st20" d="M36.8,22.1L36,26.8v0.1l0.1,0.1H37c0.1,0,0.2-0.1,0.3-0.2l0.8-4.6v-0.1L38,22h-0.9C36.9,22,36.8,22.1,36.8,22.1L36.8,22.1z" /><path class="st20" d="M30.7,7c0.3-1,0-2.1-0.7-2.9c-1.1-0.9-2.5-1.3-3.9-1.2h-5.2c-0.4,0-0.7,0.3-0.7,0.6L18,16.7c0,0.1,0,0.3,0.1,0.3s0.2,0.1,0.3,0.1h3.2l-0.2,1.3c0,0.1,0,0.2,0.1,0.3s0.2,0.1,0.3,0.1h2.7c0.3,0,0.6-0.2,0.6-0.6v-0.1l0.5-3.1v-0.2c0.1-0.3,0.3-0.5,0.6-0.5h0.4c2.6,0,4.6-1,5.2-4c0.3-1,0.1-2.1-0.5-3C31.1,7.4,30.9,7.2,30.7,7L30.7,7" /><path class="st22" d="M30.9,7.3c0.3-1.1,0-2.2-0.7-3c-1.1-0.9-2.5-1.4-4-1.2h-5.3c-0.4,0-0.7,0.3-0.7,0.6L18,17.5c0,0.1,0,0.3,0.1,0.4s0.2,0.2,0.3,0.2h3.2l0.8-5.1l0,0c0.1-0.4,0.4-0.6,0.7-0.6h1.5c3,0,5.4-1.2,6.1-4.8C30.8,7.5,30.8,7.4,30.9,7.3" /><path class="st21" d="M23.4,7.3c0-0.2,0.2-0.4,0.4-0.5c0.1,0,0.2-0.1,0.3-0.1h4.1c0.5,0,0.9,0,1.4,0.1l0.3,0.1L30.2,7h0.2c0.2,0.1,0.4,0.1,0.6,0.2c0.3-1.1,0-2.2-0.7-3c-1.1-0.9-2.6-1.4-4-1.2H21c-0.4,0-0.7,0.3-0.7,0.6L18,17.5c0,0.1,0,0.3,0.1,0.4s0.2,0.2,0.3,0.2h3.2l0.8-5.1L23.4,7.3z" /></g></g></g></svg>