<svg xmlns="http://www.w3.org/2000/svg" viewBox="0 0 100 100" color="white">
    <g fill="currentColor" fill-rule="evenodd">
        <path d="M88.673 20.15h-18.06v-9.596A3.545 3.545 0 0 0 67.05 7H32.91a3.545 3.545 0 0 0-3.563 3.554v9.597h-18.06C5.07 20.15 0 25.206 0 31.406v51.339C0 88.945 5.07 94 11.287 94h77.426C94.93 94 100 88.945 100 82.745v-51.34c-.04-6.2-5.07-11.254-11.327-11.254zm-52.198-6.042h27.05v5.49h-27.05v-5.49zm56.357 68.637a4.152 4.152 0 0 1-4.159 4.147H11.287a4.152 4.152 0 0 1-4.158-4.147v-51.34a4.152 4.152 0 0 1 4.158-4.146h77.426a4.152 4.152 0 0 1 4.158 4.147v51.339h-.04z"/>
        <path d="M50.5 33C37.545 33 27 43.545 27 56.5S37.545 80 50.5 80 74 69.455 74 56.5 63.455 33 50.5 33zm0 39.89c-9.045 0-16.39-7.345-16.39-16.39 0-9.045 7.345-16.39 16.39-16.39 9.045 0 16.39 7.345 16.39 16.39 0 9.045-7.345 16.39-16.39 16.39z"/>
    </g>
</svg>
