<svg xmlns="http://www.w3.org/2000/svg" viewBox="0 0 100 100" width="24" height="24">
<path d="M50 0C22.383 0 0 22.4 0 50.04c0 21.188 13.164 39.288 31.797 46.598-.43-3.948-.82-10.047.156-14.347.899-3.91 5.86-24.863 5.86-24.863s-1.485-3.01-1.485-7.428c0-6.959 4.024-12.158 9.063-12.158 4.257 0 6.328 3.206 6.328 7.037 0 4.3-2.735 10.711-4.14 16.653-1.173 4.965 2.5 9.03 7.421 9.03 8.906 0 15.703-9.381 15.703-22.908 0-11.962-8.594-20.367-20.898-20.367-14.22 0-22.578 10.672-22.578 21.697 0 4.3 1.64 8.913 3.71 11.415.391.508.47.938.352 1.446-.39 1.564-1.21 4.965-1.406 5.669-.235.899-.742 1.094-1.68.664-6.25-2.893-10.156-12.04-10.156-19.39 0-15.793 11.445-30.297 33.047-30.297 17.343 0 30.82 12.353 30.82 28.89 0 17.24-10.86 31.118-25.937 31.118-5.079 0-9.844-2.62-11.446-5.747 0 0-2.5 9.539-3.125 11.884-1.133 4.34-4.18 9.813-6.21 13.136A50.08 50.08 0 0 0 50 100c27.617 0 50-22.4 50-50.04C100 22.4 77.617 0 50 0z" fill="currentColor" />
</svg>