<svg viewBox="0 0 100 100" xmlns="http://www.w3.org/2000/svg" id="icon-question"><path d="M50 0C22.368 0 0 22.368 0 50s22.368 50 50 50 50-22.368 50-50S77.632 0 50 0zm5.144 80.263H44.498V69.617h10.646v10.646zm12.878-37.919c-1.315 2.114-4.146 4.945-8.532 8.573-2.233 1.874-3.629 3.39-4.187 4.506-.558 1.156-.797 3.19-.758 6.1h-9.689c-.04-1.395-.04-2.233-.04-2.552 0-3.15.519-5.701 1.556-7.735 1.036-2.033 3.11-4.306 6.22-6.818 3.11-2.512 4.984-4.187 5.582-4.984.917-1.236 1.395-2.592 1.395-4.107 0-2.073-.837-3.868-2.472-5.343-1.674-1.475-3.867-2.233-6.698-2.233-2.712 0-4.984.758-6.779 2.313-1.834 1.555-3.07 3.907-3.748 7.057l-9.768-1.196c.279-4.506 2.193-8.373 5.781-11.523 3.589-3.15 8.254-4.745 14.075-4.745 6.1 0 10.965 1.595 14.593 4.785 3.629 3.19 5.423 6.938 5.423 11.164.04 2.432-.638 4.665-1.954 6.738z" fill="currentColor" fill-rule="evenodd" /></svg>