<svg xmlns="http://www.w3.org/2000/svg" viewBox="0 0 100 100" color="white">
    <g fill="currentColor" fill-rule="evenodd">
        <path d="M88.35 28.85h-15.8L58.807 11.357a3.54 3.54 0 0 0-4.976-.6c-1.54 1.239-1.777 3.515-.592 5.033l9.755 12.461H37.006l9.755-12.421c1.225-1.558.948-3.834-.592-5.032a3.5 3.5 0 0 0-4.976.599L27.488 28.85H11.69C5.253 28.85 0 34.162 0 40.672c0 .32.04.64.118.959l9.558 35.466v.08C10.624 80.412 12.796 88 20.735 88h58.017c7.82 0 10.308-7.189 11.493-10.624.04-.08.04-.16.079-.24l9.558-35.465c.079-.32.118-.64.118-.959 0-6.55-5.213-11.862-11.65-11.862zm-4.86 46.21c-1.856 5.272-3.16 5.711-4.739 5.711H20.735c-1.422 0-2.726-.44-4.226-5.591l-9.4-34.907c.197-2.357 2.172-4.234 4.542-4.234H88.31c2.37 0 4.344 1.837 4.542 4.234l-9.36 34.787z"/>
        <path d="M73.421 47H26.58C24.59 47 23 48.778 23 51s1.59 4 3.579 4H73.42c1.99 0 3.58-1.778 3.58-4s-1.59-4-3.579-4zm-6.085 16H32.624C30.611 63 29 64.778 29 67s1.61 4 3.624 4h34.752C69.389 71 71 69.222 71 67s-1.651-4-3.664-4z"/>
    </g>
</svg>
