<svg xmlns="http://www.w3.org/2000/svg" viewBox="0 0 100 100" width="24" height="24" color="#000">
<path stroke="null" d="M96.98 26.43a12.277 12.277 0 00-8.637-8.64c-7.669-2.097-38.344-2.097-38.344-2.097s-30.674 0-38.343 2.018c-4.117 1.13-7.508 4.52-8.637 8.718C1 34.097 1 50 1 50s0 15.983 2.018 23.57a12.28 12.28 0 008.638 8.638c7.748 2.1 38.343 2.1 38.343 2.1s30.674 0 38.343-2.02a12.28 12.28 0 008.639-8.636c2.017-7.67 2.017-23.571 2.017-23.571s.08-15.984-2.019-23.652zM40.233 64.69V35.31L65.74 50 40.233 64.691zm0 0" />
</svg>